<svg viewBox="-2.9499999999999886 26.549999999999983 182.9 182.90000000000003" fill="none" xmlns="http://www.w3.org/2000/svg" xmlns:xlink="http://www.w3.org/1999/xlink" overflow="visible" width="182.9px" height="182.90000000000003px"><g id="Master/Character/Avatar and Background"><g id="Backdrop" transform="translate(-24 19) scale(1.0275229357798166 1.0315789473684212)"><g id="Backdrop/Circle"><path id="Background" opacity="0.196851" fill-rule="evenodd" clip-rule="evenodd" d="M196 95.4995C196 143.272 157.272 182 109.5 182C61.7278 182 23 143.272 23 95.4995C23 47.7276 61.7278 9 109.5 9C157.272 9 196 47.7276 196 95.4995" fill="#FF45F9"/></g></g><g id="Hairstyle" transform="translate(-1 54) scale(3.6400000124561545 3.6400000124561545)"><g id="Hairstyle/Afro"><g id="Group 16"><path id="Fill 1" fill-rule="evenodd" clip-rule="evenodd" d="M41.8278 21.1227C41.2828 21.5267 40.4558 21.8067 39.8448 21.4167C40.2988 21.2727 41.8328 20.6277 42.1538 18.3627C42.5108 16.6087 41.7858 16.0087 41.7858 16.0087C41.7858 16.0087 41.9218 15.8897 42.1148 15.6857C43.0508 16.5687 43.4798 17.9227 43.1358 19.1917C42.9298 19.9517 42.4618 20.6537 41.8278 21.1227M40.5308 7.4737C41.0278 7.6617 41.4528 7.9777 41.6738 8.5147C41.9798 9.2587 41.8258 10.1237 41.4238 10.8297C41.2568 10.7927 41.1498 10.7857 41.1498 10.7857C41.1498 10.7857 41.9818 9.2777 41.1458 8.1237C40.9558 7.8597 40.7438 7.6497 40.5308 7.4737M4.62683 24.1477C4.05683 23.6667 3.68183 22.9687 3.55983 22.2357C3.30783 20.7267 4.20383 19.2847 5.48583 18.5437C5.59683 18.6127 5.67083 18.6437 5.67083 18.6437C5.67083 18.6437 4.24783 19.2737 4.17783 21.5427C4.10783 23.8107 6.63883 23.7047 6.63883 23.7047C6.63883 23.7047 6.42483 24.2017 6.33183 24.9107C5.72783 24.7307 5.11683 24.5607 4.62683 24.1477M5.00583 8.9657C5.44383 8.0157 6.16383 7.1757 7.01983 6.5757C7.55383 6.2027 8.09883 6.0597 8.66083 6.0497C7.97383 6.2167 7.16283 6.5727 6.47183 7.3187C4.92283 8.9887 5.59883 11.3287 6.65283 11.7667C6.65283 11.7667 5.91983 12.1117 5.26583 13.0387C4.45883 11.8897 4.40383 10.2697 5.00583 8.9657M42.4508 15.3077C43.0198 14.6167 43.6928 13.5227 43.3248 12.5117C43.0068 11.6347 42.4068 11.2037 41.9168 10.9917C42.3558 10.1777 42.5128 9.2037 42.1608 8.3467C41.6458 7.0917 40.3148 6.7387 39.0678 6.7207C39.0738 6.7047 40.0538 4.4037 38.5938 2.9767C37.1288 1.5447 35.0668 1.9727 35.0668 1.9727C35.0668 1.9727 35.0338 -0.9253 32.8678 -1.8883C30.7008 -2.8513 28.7898 -1.4813 28.7898 -1.4813C28.7898 -1.4813 28.5158 -2.9543 26.5208 -3.2493C24.5258 -3.5453 24.0588 -2.3453 24.0588 -2.3453C24.0588 -2.3453 22.8488 -4.3343 20.9518 -3.9503C19.0548 -3.5673 19.3628 -2.4403 19.3628 -2.4403C19.3628 -2.4403 17.2548 -3.6963 15.9538 -2.5103C14.6538 -1.3233 15.2408 0.3137 15.2408 0.3137C15.2408 0.3137 12.8698 -0.7653 11.0718 1.0077C9.53983 2.5187 9.96383 5.0187 10.1228 5.7267C8.98783 5.4507 7.89383 5.3887 6.85583 6.0647C5.83283 6.7317 4.96783 7.7447 4.48583 8.8667C3.83083 10.3937 3.97783 12.2327 4.97683 13.5047C4.71783 13.9757 4.49383 14.5547 4.36983 15.2677C4.09683 16.8387 4.60583 17.7307 5.06483 18.1987C3.73983 19.0537 2.81383 20.5557 3.03183 22.1767C3.14083 22.9857 3.49983 23.7507 4.07283 24.3367C4.69283 24.9697 5.49383 25.1657 6.29283 25.4267C6.27783 26.1397 6.42283 26.9737 6.97983 27.7267C8.29883 29.5107 10.1998 28.3667 10.1998 28.3667C10.1998 28.3667 9.34983 31.8777 12.8058 32.0937C12.8058 32.0937 13.6608 34.7827 16.6798 35.1817C19.6988 35.5807 21.4398 33.8097 21.4398 33.8097L33.5518 29.8887C33.5518 29.8887 36.3018 30.2067 37.9388 28.8577C39.5758 27.5107 38.5948 25.5597 38.5948 25.5597C38.5948 25.5597 39.9968 25.0087 40.3168 23.3977C40.4328 22.8107 40.3828 22.3967 40.2738 22.1027C40.7988 22.1647 41.3568 22.0107 41.8228 21.7437C42.6398 21.2757 43.2518 20.4527 43.5548 19.5707C44.0798 18.0387 43.5918 16.3827 42.4508 15.3077" fill="#2C2263"/><path id="Fill 8" fill-rule="evenodd" clip-rule="evenodd" d="M26.6837 36.7292V36.7292C31.1497 37.0592 35.0877 33.8042 35.4807 30.1662L36.3547 21.5772C36.8477 17.0172 34.2077 12.9292 29.6667 12.2882H29.6657C25.0177 11.6312 19.3277 14.7112 18.6707 19.3602L18.0427 26.2762C17.5567 31.6252 21.3657 35.9772 26.6837 36.7292" fill="#9f91ca"/><path id="Fill 10" fill-rule="evenodd" clip-rule="evenodd" d="M13.861 26.1432C13.591 28.0482 14.918 29.8122 16.824 30.0812C18.73 30.3502 20.493 29.0242 20.762 27.1182C21.032 25.2122 19.705 23.4492 17.799 23.1792C15.894 22.9112 14.13 24.2372 13.861 26.1432" fill="#9f91ca"/><path id="Fill 12" fill-rule="evenodd" clip-rule="evenodd" d="M18.3728 27.8268C18.3728 27.8268 18.7268 25.3248 16.2788 25.3808Z" fill="#00023C" fill-opacity="0.18"/><path id="Fill 14" fill-rule="evenodd" clip-rule="evenodd" d="M38.086 19.9196C36.297 20.7606 31.734 21.0196 29.878 20.6786C27.549 20.2506 25.281 19.4646 23.175 18.3396C22.492 19.4956 22.139 20.8526 21.366 21.9456C20.594 23.0396 19.142 23.8266 17.993 23.1896C15.157 21.6156 16.924 16.2296 18.692 14.6786C29.789 4.9406 39.891 19.0706 38.086 19.9196" fill="#2C2263"/></g></g></g><g id="Expression" transform="translate(60.8799 123.16) scale(3.640000025431315 3.639999771118164)"><g id="Expression/Blushing"><g id="Group 34"><path id="Fill 1" fill-rule="evenodd" clip-rule="evenodd" d="M12.505 9.0644C12.576 9.2104 12.652 9.3534 12.722 9.5004C12.744 9.5454 12.765 9.5924 12.786 9.6394C12.792 9.6524 12.831 9.7444 12.8 9.6714C12.809 9.6924 12.817 9.7124 12.826 9.7334C12.863 9.8284 12.898 9.9234 12.922 10.0224C12.928 10.0434 12.933 10.0654 12.938 10.0864C12.94 10.0964 12.953 10.1744 12.944 10.1194C12.937 10.0644 12.945 10.1354 12.945 10.1454C12.946 10.1634 12.943 10.1814 12.945 10.1994C12.947 10.2154 12.966 10.1224 12.946 10.1824C12.926 10.2454 12.966 10.1474 12.957 10.1664C12.926 10.2194 13.026 10.1004 12.961 10.1624C12.937 10.1844 12.915 10.2084 12.891 10.2294C12.876 10.2424 12.877 10.2414 12.896 10.2264C12.881 10.2374 12.866 10.2484 12.851 10.2574C12.824 10.2754 12.796 10.2924 12.767 10.3064C12.758 10.3114 12.674 10.3514 12.723 10.3304C12.693 10.3424 12.662 10.3544 12.63 10.3644C12.5 10.4094 12.365 10.4374 12.231 10.4614C12.081 10.4904 11.982 10.6794 12.027 10.8204C12.079 10.9804 12.225 11.0524 12.385 11.0234C12.711 10.9624 13.034 10.8674 13.292 10.6494C13.394 10.5624 13.48 10.4584 13.51 10.3254C13.538 10.2024 13.526 10.0824 13.504 9.9594C13.428 9.5384 13.192 9.1514 13.007 8.7714C12.94 8.6334 12.734 8.5854 12.609 8.6674C12.468 8.7574 12.433 8.9184 12.505 9.0644" fill="#00023C" fill-opacity="0.18"/><path id="Fill 3" fill-rule="evenodd" clip-rule="evenodd" d="M9.92512 6.7206C9.92512 6.7206 10.1811 7.8506 9.34512 7.5746C8.50812 7.2986 5.59912 6.4156 5.59912 6.4156C5.59912 6.4156 7.08012 4.0376 9.92512 6.7206" fill="#EFF2F9"/><path id="Fill 5" fill-rule="evenodd" clip-rule="evenodd" d="M10.2311 6.4042C10.2191 6.3742 10.2101 6.3422 10.1961 6.3112C9.42105 4.6262 7.11305 4.5642 5.69905 5.3962C5.58805 5.4622 5.46005 5.5302 5.33505 5.4972C5.24805 5.4732 5.18005 5.4052 5.11705 5.3392C4.90405 5.1142 4.62305 4.6442 4.25505 4.7522C4.06405 4.8082 4.03605 4.8812 4.00405 5.0192C3.95005 5.2532 4.45105 5.5492 4.58605 5.6742C4.86105 5.9272 5.12505 6.1772 5.44905 6.3802C5.49405 6.4072 5.54105 6.4342 5.59205 6.4422C5.67905 6.4542 5.76205 6.4092 5.83205 6.3572C6.21905 6.0712 6.44405 5.7342 6.92805 5.5652C7.18105 5.4762 7.53805 5.4162 7.78605 5.5472C7.69905 5.9892 7.29005 6.4872 7.06805 6.8882L9.60105 7.6732C9.60105 7.6732 10.5821 7.1992 10.2311 6.4042" fill="#2A0952"/><path id="Fill 7" fill-rule="evenodd" clip-rule="evenodd" d="M17.6476 8.4491L13.5806 8.0491C13.5806 8.0491 15.1466 5.9611 16.7216 6.5871C18.2966 7.2121 17.6476 8.4491 17.6476 8.4491" fill="#EFF2F9"/><g id="Group 11"><mask id="mask0_723_156814c64d16a-7d3f-4b5a-bcf0-40ae52b9563c" style="mask-type:luminance" maskUnits="userSpaceOnUse" x="13" y="6" width="7" height="3" fill="#ffffff"><path id="Clip 10" fill-rule="evenodd" clip-rule="evenodd" d="M13.1777 6.06192H19.4291V8.4493H13.1777V6.06192Z" fill="#ffffff"/></mask><g mask="url(#mask0_723_156814c64d16a-7d3f-4b5a-bcf0-40ae52b9563c)"><path id="Fill 9" fill-rule="evenodd" clip-rule="evenodd" d="M19.2513 6.6483C19.0823 6.5583 18.9233 6.6173 18.7823 6.7243C18.5483 6.9023 18.2513 7.2493 17.9743 7.0353C17.7183 6.8363 17.5823 6.5743 17.2693 6.4133C16.7153 6.1273 16.0433 6.0253 15.4253 6.0733C14.5523 6.1393 13.6223 6.5413 13.2403 7.3783C13.1663 7.5423 13.1483 7.7413 13.2393 7.8963C13.3303 8.0503 13.5483 8.1313 13.7003 8.0373C13.7673 7.9963 13.8133 7.9293 13.8563 7.8643C14.3023 7.2073 15.2733 6.4073 16.1303 6.7793C16.0013 7.2653 15.5853 7.7713 15.3503 8.2223L17.6473 8.4493C17.6473 8.4493 18.0463 8.1923 18.0823 7.7823C18.1313 7.7553 18.1803 7.7323 18.2313 7.7213C18.4753 7.4283 18.8903 7.4403 19.1623 7.1983C19.2513 7.1113 19.3403 7.0243 19.4293 6.9363C19.4263 6.8053 19.4143 6.7353 19.2513 6.6483" fill="#2A0952"/></g></g><path id="Fill 12" fill-rule="evenodd" clip-rule="evenodd" d="M9.54102 11.331C9.69702 11.434 9.88102 11.655 9.98202 11.735C10.417 12.079 10.909 12.362 11.449 12.505C11.85 12.611 12.27 12.636 12.681 12.582C12.881 12.556 13.08 12.511 13.272 12.446C13.418 12.398 13.608 12.308 13.762 12.304C13.836 12.302 13.914 12.328 13.963 12.384C14.019 12.446 14.066 12.519 14.1 12.595C14.105 12.75 14.03 12.873 13.941 12.991C13.718 13.099 13.455 13.109 13.211 13.142C12.938 13.176 12.665 13.204 12.39 13.224C12.208 13.237 12.025 13.247 11.843 13.238C11.33 13.212 10.782 13.045 10.321 12.818C10.109 12.715 9.91102 12.556 9.72102 12.415C9.62202 12.341 9.52402 12.265 9.42902 12.185C9.35902 12.127 9.18302 12.019 9.15202 11.935C9.12502 11.865 9.10002 11.795 9.07302 11.726C9.06202 11.695 9.17502 11.493 9.19402 11.458C9.23502 11.384 9.29702 11.286 9.39202 11.277C9.43502 11.272 9.48602 11.295 9.54102 11.331" fill="#2A0952"/><path id="Fill 14" fill-rule="evenodd" clip-rule="evenodd" d="M8.70975 4.162C9.45375 4.062 9.44575 2.962 8.70275 2.85C8.05675 2.754 7.23275 2.755 6.74675 3.235C5.85575 4.113 7.88975 4.253 8.68675 4.165C8.69375 4.164 8.70175 4.164 8.70975 4.162" fill="#2A0952"/><path id="Fill 16" fill-rule="evenodd" clip-rule="evenodd" d="M16.236 5.1083C15.654 4.8713 15.893 3.9803 16.518 4.0463C17.063 4.1043 17.73 4.2793 18.024 4.7703C18.56 5.6703 16.882 5.3543 16.255 5.1163C16.249 5.1133 16.242 5.1113 16.236 5.1083" fill="#2A0952"/><path id="Fill 18" fill-rule="evenodd" clip-rule="evenodd" d="M8.28715 10.0898C8.02715 10.4538 7.61815 10.7068 7.18015 10.8118C6.67415 10.9318 6.13715 10.8668 5.64815 10.6918C5.32815 10.5758 5.01815 10.4078 4.79515 10.1518C4.40915 9.7098 4.38315 8.8958 4.51215 8.3468C4.58915 8.0178 4.78015 7.7028 5.07415 7.5358C5.50615 7.2908 5.97615 7.2728 6.45015 7.3598C6.86915 7.4378 7.29315 7.5268 7.66715 7.7308C8.41215 8.1388 8.81015 9.1358 8.39615 9.9138C8.36415 9.9758 8.32715 10.0338 8.28715 10.0898" fill="#FF37B8" fill-opacity="0.5"/><path id="Fill 20" fill-rule="evenodd" clip-rule="evenodd" d="M5.19178 9.4374C5.14078 9.4374 5.08878 9.4214 5.04478 9.3894C4.93278 9.3074 4.90878 9.1514 4.98978 9.0404L5.64678 8.1404C5.72878 8.0294 5.88578 8.0054 5.99578 8.0854C6.10778 8.1674 6.13178 8.3244 6.05078 8.4354L5.39378 9.3344C5.34478 9.4024 5.26878 9.4374 5.19178 9.4374" fill="#FFD0F6"/><path id="Fill 22" fill-rule="evenodd" clip-rule="evenodd" d="M7.09498 10.1884H7.08098C6.94298 10.1804 6.83798 10.0624 6.84498 9.9244L6.90798 8.8124C6.91498 8.6744 7.02698 8.5884 7.17098 8.5764C7.30898 8.5844 7.41398 8.7024 7.40698 8.8394L7.34498 9.9524C7.33698 10.0854 7.22698 10.1884 7.09498 10.1884" fill="#FFD0F6"/><path id="Fill 24" fill-rule="evenodd" clip-rule="evenodd" d="M5.97134 9.9071C5.93234 9.9071 5.89334 9.8981 5.85734 9.8801C5.73434 9.8161 5.68534 9.6661 5.74934 9.5431L6.32934 8.4131C6.39134 8.2901 6.54333 8.2421 6.66533 8.3041C6.78834 8.3681 6.83733 8.5181 6.77333 8.6411L6.19334 9.7711C6.14934 9.8571 6.06134 9.9071 5.97134 9.9071" fill="#FFD0F6"/><path id="Fill 26" fill-rule="evenodd" clip-rule="evenodd" d="M14.9899 11.2167C15.2079 11.5227 15.5509 11.7347 15.9179 11.8207C16.3409 11.9217 16.7909 11.8677 17.2009 11.7207C17.4689 11.6237 17.7289 11.4847 17.9159 11.2697C18.2389 10.8987 18.2609 10.2167 18.1529 9.7567C18.0879 9.4807 17.9279 9.2177 17.6819 9.0777C17.3199 8.8717 16.9259 8.8567 16.5289 8.9297C16.1779 8.9947 15.8229 9.0697 15.5099 9.2397C14.8849 9.5817 14.5519 10.4167 14.8989 11.0697C14.9259 11.1207 14.9559 11.1697 14.9899 11.2167" fill="#FF37B8" fill-opacity="0.5"/><path id="Fill 28" fill-rule="evenodd" clip-rule="evenodd" d="M17.5839 10.7108C17.5069 10.7108 17.4309 10.6758 17.3819 10.6078L16.8319 9.8548C16.7499 9.7428 16.7739 9.5868 16.8859 9.5048C16.9959 9.4248 17.1529 9.4458 17.2349 9.5598L17.7859 10.3138C17.8669 10.4248 17.8429 10.5808 17.7309 10.6628C17.6869 10.6948 17.6349 10.7108 17.5839 10.7108" fill="#FFD0F6"/><path id="Fill 30" fill-rule="evenodd" clip-rule="evenodd" d="M15.9889 11.3398C15.8569 11.3398 15.7469 11.2368 15.7389 11.1038L15.6869 10.1718C15.6789 10.0338 15.7849 9.9158 15.9229 9.9078C16.0789 9.9218 16.1789 10.0068 16.1859 10.1448L16.2389 11.0758C16.2459 11.2138 16.1409 11.3318 16.0029 11.3398H15.9889Z" fill="#FFD0F6"/><path id="Fill 32" fill-rule="evenodd" clip-rule="evenodd" d="M16.9298 11.1044C16.8398 11.1044 16.7518 11.0544 16.7078 10.9684L16.2218 10.0224C16.1588 9.8994 16.2068 9.7494 16.3298 9.6854C16.4538 9.6244 16.6038 9.6714 16.6658 9.7934L17.1518 10.7404C17.2158 10.8634 17.1668 11.0134 17.0438 11.0774C17.0078 11.0954 16.9688 11.1044 16.9298 11.1044" fill="#FFD0F6"/></g></g></g></g></svg>