<svg viewBox="197.11249999999995 -15.137500000000045 758.125 1226.1375" fill="none" xmlns="http://www.w3.org/2000/svg" xmlns:xlink="http://www.w3.org/1999/xlink" overflow="visible" width="758.125px" height="1226.1375px"><g id="Master/Character/Pride Mixable Body"><g id="Pride Lower" transform="translate(244 522) scale(1 1)"><g id="Pride Lower/Shorts 2"><g id="Group 57"><path id="SKIN" fill-rule="evenodd" clip-rule="evenodd" d="M182.197 252.448C182.197 252.448 187.349 317.7 181.413 337.182C175.477 356.666 155.228 407.291 166.209 506.964C177.19 606.635 181.413 650.277 181.413 650.277L244.482 653.656L284.394 368.273C284.98 364.046 286.243 359.947 288.133 356.12C295.129 341.95 319.035 292.992 312.278 243.156C308.73 216.994 182.197 252.448 182.197 252.448" fill="#c7763c"/><path id="Fill 3" fill-rule="evenodd" clip-rule="evenodd" d="M170.404 635.606C170.404 635.606 170.386 623.133 172.718 621.721C175.05 620.308 177.162 626.016 183.098 629.912C189.035 633.808 195 641.12 211.99 640.162C228.98 639.204 229.935 638.788 235.101 641.471C240.268 644.156 251.406 649.586 251.406 649.586L248.288 672.022L175.309 668.424L170.404 635.606Z" fill="#3A00FF"/><path id="Fill 5" fill-rule="evenodd" clip-rule="evenodd" d="M193.605 664.388C188.811 649.694 173.807 638.695 170.323 633.822C167.592 637.248 168.254 661.512 168.254 661.512" fill="black"/><path id="Fill 7" fill-rule="evenodd" clip-rule="evenodd" d="M218.047 664.032L250.807 649.345C250.807 649.345 244.008 644.879 243.402 643.993C234.516 631.023 222.962 628.847 231.029 625.161C245.299 618.64 250.601 619.664 252.542 621.648C255.429 624.6 258.632 627.218 262.404 628.9C275.854 634.897 300.126 645.718 301.578 646.353C303.769 647.312 332.866 653.113 320.618 657.411C308.371 661.709 276.58 671.191 218.047 664.032" fill="black"/><g id="Group 11"><path id="Fill 9" fill-rule="evenodd" clip-rule="evenodd" d="M165.346 664.18L169.78 676.663C170.262 678.019 171.335 679.003 172.634 679.274C178.143 680.425 193.625 683.325 207.773 682.867C221.758 683.833 247.688 685.029 257.6 685.472C260.602 685.607 263.6 685.617 266.603 685.493C277.907 685.031 305.742 683.248 322.85 676.633C327.364 674.324 328.63 672.581 328.63 672.581L328.224 666.11C328.224 666.11 328.807 660.337 326.038 658.469C325.745 654.897 323.776 653.277 322.365 653.233C320.952 653.189 324.361 653.963 322.713 655.026C321.064 656.088 313.388 662.754 276.398 664.058C239.409 665.362 214.431 663.474 214.431 663.474L179.166 661.268C179.166 661.268 168.43 660.193 168.351 658.409C168.272 656.624 163.752 659.157 165.346 664.18" fill="black"/></g><path id="Fill 12" fill-rule="evenodd" clip-rule="evenodd" d="M230.221 639.352L234.034 633.568L251.407 649.585L230.221 639.352Z" fill="#2E0BFF"/><path id="Stroke 14" d="M176.049 659.876L176.166 659.879L180.132 660.201C181.396 660.301 182.766 660.408 184.231 660.521L187.408 660.761C192.225 661.121 197.275 661.479 202.443 661.819L204.17 661.932C211.035 662.378 217.713 662.767 224.074 663.084L227.516 663.25C245.107 664.069 258.734 664.24 266.879 663.586C267.43 663.542 267.912 663.952 267.956 664.502C268 665.053 267.59 665.535 267.039 665.579L266.223 665.641C257.898 666.23 244.527 666.045 227.427 665.248L225.705 665.166C219.391 664.862 212.751 664.484 205.911 664.048L204.04 663.928C197.686 663.516 191.49 663.077 185.659 662.635L179.349 662.145L175.998 661.872C175.448 661.826 175.039 661.342 175.086 660.792C175.129 660.281 175.549 659.892 176.049 659.876Z" fill="white"/><path id="Stroke 16" d="M189.855 637.33C190.232 636.927 190.864 636.905 191.268 637.282L191.392 637.391C191.567 637.539 191.849 637.759 192.24 638.031C193.096 638.628 194.131 639.228 195.347 639.79C200.206 642.038 206.317 643.013 213.715 641.975C214.262 641.899 214.768 642.28 214.844 642.827C214.921 643.374 214.54 643.879 213.993 643.956C206.206 645.048 199.708 644.011 194.507 641.605C193.183 640.993 192.046 640.334 191.096 639.672L190.736 639.414C190.347 639.129 190.07 638.899 189.904 638.744C189.5 638.367 189.478 637.734 189.855 637.33Z" fill="white"/><path id="Stroke 18" d="M323.074 659.271C323.533 658.964 324.154 659.086 324.462 659.544C324.77 660.003 324.647 660.624 324.189 660.932C316.609 666.019 297.376 670.283 270.069 671.264L269.239 671.293C259.02 671.633 244.662 671.241 227.215 670.264C219.207 669.815 210.75 669.254 202.032 668.605L198.509 668.34C191.493 667.804 184.67 667.24 178.241 666.676L169.54 665.889L168.596 665.799C168.046 665.746 167.643 665.258 167.696 664.708C167.749 664.158 168.238 663.755 168.787 663.808L172.632 664.166C174.164 664.307 175.837 664.457 177.637 664.615L181.658 664.965C188.206 665.528 195.114 666.085 202.18 666.611L206.179 666.904C212.811 667.381 219.271 667.804 225.474 668.162L227.327 668.267C244.397 669.223 258.495 669.617 268.604 669.312L269.172 669.294C296.579 668.381 315.797 664.155 323.074 659.271Z" fill="#c7763c"/><path id="Stroke 20" d="M172.77 412.207C173.321 412.255 173.728 412.739 173.681 413.29L173.59 414.452L173.499 415.73C173.363 417.736 173.226 420.079 173.098 422.739C171.708 451.686 172.493 486.056 177.054 522.042C177.124 522.59 176.736 523.09 176.188 523.16C175.64 523.229 175.14 522.841 175.07 522.293C170.564 486.744 169.731 452.776 171.037 424.009L171.1 422.643C171.229 419.97 171.366 417.613 171.504 415.594L171.617 414.02L171.688 413.118C171.732 412.607 172.153 412.219 172.654 412.204L172.77 412.207Z" fill="white"/><path id="Fill 22" fill-rule="evenodd" clip-rule="evenodd" d="M335.365 252.448C335.365 252.448 340.517 317.7 334.581 337.182C328.645 356.666 308.396 407.291 319.377 506.964C330.358 606.635 334.581 650.277 334.581 650.277L397.651 653.656L437.562 368.273C438.148 364.046 439.411 359.947 441.301 356.12C448.297 341.95 472.203 292.992 465.446 243.156C461.898 216.994 335.365 252.448 335.365 252.448" fill="#D42D66"/><path id="Fill 24" fill-rule="evenodd" clip-rule="evenodd" d="M323.572 635.606C323.572 635.606 323.554 623.133 325.886 621.721C328.218 620.308 330.33 626.016 336.266 629.912C342.203 633.808 348.168 641.12 365.158 640.162C382.148 639.204 383.103 638.788 388.269 641.471C393.436 644.156 404.574 649.586 404.574 649.586L401.456 672.022L328.478 668.424L323.572 635.606Z" fill="#3A00FF"/><path id="Fill 26" fill-rule="evenodd" clip-rule="evenodd" d="M346.775 664.388C341.981 649.694 326.977 638.695 323.493 633.822C320.762 637.248 321.424 661.512 321.424 661.512" fill="black"/><path id="Fill 28" fill-rule="evenodd" clip-rule="evenodd" d="M371.217 664.032L403.977 649.345C403.977 649.345 397.178 644.879 396.571 643.993C387.686 631.023 376.132 628.847 384.199 625.161C398.469 618.64 403.771 619.664 405.712 621.648C408.599 624.6 411.802 627.218 415.574 628.9C429.025 634.897 453.296 645.718 454.748 646.353C456.939 647.312 486.036 653.113 473.788 657.411C461.541 661.709 429.75 671.191 371.217 664.032" fill="black"/><g id="Group 32"><path id="Fill 30" fill-rule="evenodd" clip-rule="evenodd" d="M318.514 664.18L322.948 676.663C323.43 678.019 324.503 679.003 325.802 679.274C331.311 680.425 346.793 683.325 360.941 682.867C374.926 683.833 400.856 685.029 410.769 685.472C413.77 685.607 416.768 685.617 419.771 685.493C431.075 685.031 458.91 683.248 476.018 676.633C480.532 674.324 481.798 672.581 481.798 672.581L481.392 666.11C481.392 666.11 481.975 660.337 479.206 658.469C478.913 654.897 476.944 653.277 475.533 653.233C474.12 653.189 477.529 653.963 475.881 655.026C474.232 656.088 466.556 662.754 429.566 664.058C392.577 665.362 367.599 663.474 367.599 663.474L332.334 661.268C332.334 661.268 321.598 660.193 321.519 658.409C321.44 656.624 316.92 659.157 318.514 664.18" fill="black"/></g><path id="Fill 33" fill-rule="evenodd" clip-rule="evenodd" d="M383.389 639.352L387.202 633.568L404.575 649.585L383.389 639.352Z" fill="#2E0BFF"/><path id="Stroke 35" d="M329.334 659.879L333.3 660.201C334.564 660.301 335.934 660.408 337.399 660.521L340.576 660.761C345.393 661.121 350.443 661.479 355.611 661.819L357.338 661.932C364.203 662.378 370.881 662.767 377.242 663.084L380.684 663.25C398.274 664.069 411.902 664.24 420.047 663.586C420.598 663.542 421.08 663.952 421.124 664.502C421.168 665.053 420.758 665.535 420.207 665.579L419.391 665.641C411.066 666.23 397.695 666.045 380.595 665.248L378.873 665.166C372.559 664.862 365.919 664.484 359.079 664.048L357.208 663.928C350.853 663.516 344.658 663.077 338.827 662.635L332.517 662.145L329.166 661.872C328.616 661.826 328.207 661.342 328.254 660.792C328.297 660.281 328.717 659.892 329.217 659.876L329.334 659.879Z" fill="white"/><path id="Stroke 37" d="M343.025 637.33C343.402 636.927 344.034 636.905 344.438 637.282L344.562 637.391C344.737 637.539 345.019 637.759 345.41 638.031C346.266 638.628 347.301 639.228 348.517 639.79C353.376 642.038 359.487 643.013 366.885 641.975C367.432 641.899 367.938 642.28 368.014 642.827C368.091 643.374 367.71 643.879 367.163 643.956C359.376 645.048 352.878 644.011 347.677 641.605C346.353 640.993 345.216 640.334 344.266 639.672L343.906 639.414C343.517 639.129 343.24 638.899 343.074 638.744C342.67 638.367 342.648 637.734 343.025 637.33Z" fill="white"/><path id="Stroke 39" d="M476.242 659.271C476.701 658.964 477.322 659.086 477.63 659.544C477.938 660.003 477.815 660.624 477.357 660.932C469.777 666.019 450.544 670.283 423.237 671.264L422.407 671.293C412.188 671.633 397.83 671.241 380.383 670.264C372.375 669.815 363.918 669.254 355.2 668.605L351.677 668.34C344.661 667.804 337.838 667.24 331.409 666.676L322.708 665.889L321.764 665.799C321.214 665.746 320.811 665.258 320.864 664.708C320.917 664.158 321.406 663.755 321.955 663.808L325.8 664.166C327.332 664.307 329.005 664.457 330.805 664.615L334.826 664.965C341.374 665.528 348.282 666.085 355.348 666.611L359.347 666.904C365.979 667.381 372.439 667.804 378.642 668.162L380.495 668.267C397.565 669.223 411.663 669.617 421.772 669.312L422.34 669.294C449.747 668.381 468.965 664.155 476.242 659.271Z" fill="#c7763c"/><path id="Stroke 41" d="M325.938 412.207C326.488 412.255 326.896 412.739 326.849 413.29L326.736 414.748L326.667 415.73C326.53 417.736 326.394 420.079 326.266 422.739L326.14 425.512C324.93 453.87 325.806 487.199 330.222 522.042C330.292 522.59 329.904 523.09 329.356 523.16C328.808 523.229 328.308 522.841 328.238 522.293C323.732 486.744 322.899 452.776 324.205 424.009L324.333 421.333C324.41 419.835 324.489 418.447 324.569 417.171L324.719 414.918L324.856 413.118C324.9 412.607 325.321 412.219 325.821 412.204L325.938 412.207Z" fill="white"/><path id="Fill 43" fill-rule="evenodd" clip-rule="evenodd" d="M469.736 254.896C456.272 139.307 435.351 83.0572 426.369 31.4093C422.072 6.70225 422.883 0.68825 422.883 0.68825L343.872 0.15625L316.172 22.0863C316.172 22.0863 306.464 169.091 322.473 202.878C326.599 211.585 328.111 233.136 329.762 254.896H469.736Z" fill="#FF56C2"/><path id="Fill 45" fill-rule="evenodd" clip-rule="evenodd" d="M317.99 257.43C322.303 220.995 325.447 183.256 328.757 169.789C334.195 147.671 352.533 30.987 359.921 0C331.765 0.437 231.531 0 231.531 0C231.531 0 198.3 63.856 187.99 138.682C182.315 179.881 178.556 225.042 176.299 257.43H317.99Z" fill="#FF94D8"/><path id="Stroke 47" d="M379.957 41.3699C380.464 41.4482 380.823 41.8942 380.804 42.3945L380.793 42.5108L367.825 126.498L367.696 126.984C367.672 127.07 367.644 127.166 367.614 127.269C367.441 127.866 367.228 128.528 366.973 129.241C366.246 131.278 365.331 133.316 364.208 135.225C361.076 140.552 356.949 143.893 351.698 144.156C351.147 144.184 350.677 143.759 350.65 143.207C350.622 142.656 351.047 142.186 351.598 142.158C356.053 141.935 359.659 139.016 362.484 134.211C363.537 132.421 364.402 130.495 365.09 128.569C365.282 128.03 365.449 127.522 365.592 127.054L365.864 126.111L378.816 42.2057C378.894 41.6988 379.34 41.34 379.841 41.3588L379.957 41.3699Z" fill="white"/><path id="Fill 49" fill-rule="evenodd" clip-rule="evenodd" d="M205.88 59.565C201.225 73.975 198.682 88.847 198.682 88.847C198.682 88.847 295.304 96.731 304.314 0.155977L231.531 0.000976562C231.531 0.000976562 213.793 35.069 205.88 59.565" fill="#E70093"/><path id="Fill 51" fill-rule="evenodd" clip-rule="evenodd" d="M435.188 72.8188C415.519 60.3778 398.13 38.4998 394.553 0.155844L425.243 0.0898438L435.188 72.8188Z" fill="#E70093"/><path id="Stroke 53" d="M279.172 59.5081C279.514 59.0743 280.143 58.9997 280.577 59.3415C281.011 59.6833 281.085 60.312 280.743 60.7459C273.334 70.15 262.225 77.1347 248.414 82.0477C239.238 85.3115 229.419 87.4717 219.602 88.7431C216.453 89.1509 213.51 89.4388 210.834 89.6271L210.111 89.676C209.107 89.7411 208.215 89.7871 207.445 89.8171L206.487 89.8469C205.935 89.8559 205.48 89.4156 205.471 88.8634C205.462 88.3112 205.902 87.8562 206.455 87.8471L207.367 87.8186L208.401 87.7719C208.768 87.7533 209.157 87.7316 209.566 87.7064L209.982 87.6802C212.806 87.497 215.954 87.1988 219.345 86.7597C229.031 85.5052 238.715 83.3747 247.743 80.1633C261.229 75.3663 272.028 68.5768 279.172 59.5081Z" fill="white"/><path id="Stroke 55" d="M353.307 28.6958C353.405 28.1523 353.926 27.7917 354.469 27.8902C354.974 27.9818 355.321 28.437 355.289 28.9367L355.275 29.0526L325.711 192.076C325.612 192.619 325.092 192.98 324.548 192.881C324.044 192.79 323.697 192.334 323.729 191.835L323.743 191.719L353.307 28.6958Z" fill="white"/></g></g></g><g id="Pride Upper" transform="translate(219 -19) scale(1 1)"><g id="Pride Upper/Hands Up"><g id="Group 142"><g id="Group 57"><path id="Fill 1" fill-rule="evenodd" clip-rule="evenodd" d="M724.753 182.027L721.447 187.544L726.245 190.77C728.943 192.397 730.507 190.008 730.507 190.008C732.192 187.512 730.328 185.857 729.305 185.163L724.753 182.027Z" fill="#5BCC1C"/><path id="Fill 3" fill-rule="evenodd" clip-rule="evenodd" d="M713.862 199.812L710.555 205.33L715.353 208.556C718.051 210.183 719.615 207.793 719.615 207.793C721.301 205.297 719.436 203.641 718.414 202.947L713.862 199.812Z" fill="#5BCC1C"/><path id="Fill 5" fill-rule="evenodd" clip-rule="evenodd" d="M702.717 203.803L699.41 209.319L704.208 212.546C706.906 214.173 708.47 211.783 708.47 211.783C710.156 209.288 708.291 207.632 707.269 206.938L702.717 203.803Z" fill="#5BCC1C"/><path id="Fill 7" fill-rule="evenodd" clip-rule="evenodd" d="M722.597 193.532L719.291 199.049L724.088 202.276C726.786 203.903 728.35 201.513 728.35 201.513C730.036 199.018 728.171 197.362 727.149 196.668L722.597 193.532Z" fill="#5BCC1C"/><path id="Fill 9" fill-rule="evenodd" clip-rule="evenodd" d="M728.366 182.873L718.72 176.252C708.373 168.378 695.424 161.265 694.716 158.801C693.532 154.679 702.918 149.989 712.537 146.742C721.723 143.642 723.39 135.498 718.169 133.546C711.349 130.995 702.113 137.208 688.559 141.179C675.007 145.149 650.064 153.932 650.064 153.932L646.045 155.916C640.069 158.867 634.43 162.455 629.233 166.627C617.95 175.685 596.498 192.532 581.695 201.866C558.516 216.482 513.105 256.936 496.761 277.531C485.733 291.426 474.301 299.5 452.887 315.384L393.945 342.791C393.945 342.791 393.702 343.019 393.236 343.432V508.693C401.157 506.875 408.823 504.026 416.191 500.478L456.162 441.906L558.085 334.517C558.085 334.517 627.653 234.173 642.973 217.508C651.233 208.523 657.431 203.13 661.389 200.066C663.766 198.227 666.759 197.385 669.748 197.711L674.02 198.178C678.854 198.706 681.966 199.976 685.974 202.727L700.591 212.165C702.787 213.672 705.844 213.448 707.594 211.44C709.083 209.73 709.2 207.395 708.214 205.579L711.889 208.102C714.073 209.601 717.11 209.387 718.864 207.402C720.355 205.715 720.494 203.408 719.55 201.593L720.584 202.303C723.068 204.008 726.554 203.226 728.038 200.516C729.33 198.154 728.444 195.176 726.224 193.652L723.819 192.002C725.945 192.705 728.375 191.983 729.701 190.05C731.307 187.709 730.707 184.479 728.366 182.873" fill="#a05c2f"/><path id="Fill 11" fill-rule="evenodd" clip-rule="evenodd" d="M710.592 138.517L709.275 133.83L716.609 131.965C719.867 131.104 720.916 135.398 716.21 136.705L710.592 138.517Z" fill="#5BCC1C"/><path id="Fill 13" fill-rule="evenodd" clip-rule="evenodd" d="M696.018 171.26L723.627 189.427L695.303 171.92C695.518 171.711 695.713 171.496 696.018 171.26" fill="#AC004A"/><path id="Fill 15" fill-rule="evenodd" clip-rule="evenodd" d="M689.167 178.98L719.702 199.528L688.627 179.807C688.805 179.533 688.985 179.256 689.167 178.98" fill="#AC004A"/><path id="Fill 17" fill-rule="evenodd" clip-rule="evenodd" d="M683.646 187.175L708.39 203.403L683.182 187.821C683.336 187.606 683.492 187.391 683.646 187.175" fill="#AC004A"/><path id="Fill 19" fill-rule="evenodd" clip-rule="evenodd" d="M675.925 198.345C675.925 198.345 662.769 192.605 659.407 188.115C655.967 183.521 654.365 178.304 654.365 178.304C654.365 178.304 651.691 188.988 662.035 199.658C664.412 198.391 675.925 198.345 675.925 198.345" fill="#AC004A"/><path id="Fill 21" fill-rule="evenodd" clip-rule="evenodd" d="M691.853 158.897C691.853 158.897 680.596 173.94 658.984 167.533C670.929 165.062 670.752 168.729 691.853 158.897" fill="#AC004A"/><path id="Fill 25" fill-rule="evenodd" clip-rule="evenodd" d="M3.74289 78.8955L6.33389 84.7815L1.17189 87.3845C-1.70911 88.6615 -2.96211 86.0955 -2.96211 86.0955C-4.32311 83.4095 -2.26611 81.9995 -1.16511 81.4385L3.74289 78.8955Z" fill="#5BCC1C"/><path id="Fill 27" fill-rule="evenodd" clip-rule="evenodd" d="M14.301 84.2451L16.893 90.1311L11.73 92.7341C8.85002 94.0111 7.59702 91.4451 7.59702 91.4451C6.23502 88.7591 8.29202 87.3491 9.39402 86.7881L14.301 84.2451Z" fill="#5BCC1C"/><path id="SKIN" fill-rule="evenodd" clip-rule="evenodd" d="M462.02 392.262C460.143 372.741 452.333 374.047 449.819 359.319C447.191 343.927 434.754 326.876 429.922 323.655C419.786 316.898 381.306 293.059 381.306 293.059C338.227 302.913 303.314 260.679 303.314 260.679L248.253 226.131C228.989 207.7 218.654 198.261 209.446 183.099C195.799 160.626 155.791 114.821 134.618 97.426C121.096 86.319 101.914 66.925 91.8494 56.531C87.2134 51.742 82.0664 47.479 76.5054 43.805L72.7654 41.334C72.7654 41.334 49.1144 29.509 36.1624 23.878C23.2104 18.246 14.8214 10.93 7.73641 12.61C2.31241 13.895 2.95041 22.182 11.6784 26.406C20.8164 30.827 29.5444 36.652 27.8544 40.594C26.8454 42.95 13.1094 48.392 1.86141 54.912L-8.53659 60.279C-11.0596 61.58 -12.0586 64.709 -10.7566 67.233C-9.68159 69.316 -7.36159 70.336 -5.16459 69.904L-7.75659 71.2411C-10.1486 72.4761 -11.3996 75.3201 -10.4126 77.8251C-9.27859 80.6991 -5.91659 81.909 -3.23859 80.528L-2.12459 79.952C-3.28859 81.636 -3.43859 83.941 -2.16959 85.802C-0.676589 87.99 2.30941 88.5801 4.66341 87.3661L8.62441 85.3221C7.42041 87.0011 7.24441 89.332 8.50941 91.215C9.99441 93.425 12.9994 94.0291 15.3664 92.8071L31.0464 85.2681C35.3684 83.0371 38.6124 82.166 43.4754 82.245L47.7724 82.316C50.7784 82.365 53.6424 83.5741 55.7714 85.6961C59.3164 89.2291 64.7924 95.354 71.8664 105.299C84.9874 123.746 141.49 231.987 141.49 231.987L229.214 351.256L267.455 425.85C272.492 435.677 274.717 446.705 273.884 457.717L255.34 540.688L448.036 541.084L442.592 433.744C442.592 433.744 463.497 407.623 462.02 392.262" fill="#c7763c"/><path id="Fill 33" fill-rule="evenodd" clip-rule="evenodd" d="M14.634 18.4863L16.526 14.0013L9.48302 11.2353C6.35601 9.97431 4.78001 14.1033 9.28602 15.9873L14.634 18.4863Z" fill="#5BCC1C"/><path id="Fill 35" fill-rule="evenodd" clip-rule="evenodd" d="M25.0087 52.793L-4.65234 67.372L25.6357 53.537C25.4487 53.303 25.2817 53.065 25.0087 52.793" fill="#a05c2f"/><path id="Fill 37" fill-rule="evenodd" clip-rule="evenodd" d="M30.8424 61.3086L-2.01758 77.8846L31.2754 62.1956C31.1334 61.9016 30.9884 61.6046 30.8424 61.3086" fill="#a05c2f"/><path id="Fill 39" fill-rule="evenodd" clip-rule="evenodd" d="M35.2977 70.127L8.72266 83.14L35.6777 70.826C35.5517 70.594 35.4237 70.361 35.2977 70.127" fill="#a05c2f"/><path id="Fill 41" fill-rule="evenodd" clip-rule="evenodd" d="M41.1016 82.2485C41.1016 82.2485 54.9436 79.0105 58.8396 74.9755C62.8266 70.8465 65.4566 64.9795 65.4566 64.9795C65.4566 64.9795 66.9626 75.9545 55.3676 85.2515C52.1766 81.1225 41.1016 82.2485 41.1016 82.2485" fill="#a05c2f"/><path id="Fill 43" fill-rule="evenodd" clip-rule="evenodd" d="M30.6836 41.0469C30.6836 41.0469 39.9756 57.3769 62.2186 53.7169C50.6746 49.7749 50.3926 53.4359 30.6836 41.0469" fill="#a05c2f"/><path id="Fill 45" fill-rule="evenodd" clip-rule="evenodd" d="M403.281 357.989C403.281 357.989 381.98 336.977 393.945 342.791C405.909 348.603 429.56 370.378 418.673 394.216" fill="#a05c2f"/><path id="Fill 47" fill-rule="evenodd" clip-rule="evenodd" d="M422.428 393.277C422.428 393.277 440.494 368.218 445.844 346.82C447.533 350.339 457.341 374.882 457.341 374.882L422.428 393.277Z" fill="#a05c2f"/><path id="Fill 49" fill-rule="evenodd" clip-rule="evenodd" d="M424.681 521.669C424.681 524.157 424.093 526.174 423.368 526.174C422.642 526.174 422.053 524.157 422.053 521.669C422.053 519.181 422.642 517.164 423.368 517.164C424.093 517.164 424.681 519.181 424.681 521.669" fill="#a05c2f"/><path id="Stroke 51" d="M283.306 458.357C283.441 457.821 283.984 457.496 284.519 457.63C285.017 457.755 285.333 458.232 285.268 458.728L285.246 458.843L267.884 528.107C267.75 528.643 267.207 528.968 266.671 528.834C266.174 528.709 265.858 528.232 265.922 527.735L265.944 527.621L283.306 458.357Z" fill="white"/><path id="Fill 53" fill-rule="evenodd" clip-rule="evenodd" d="M254.619 401.537L313.371 356.956C313.371 356.956 327.871 345.507 352.648 340.626C370.612 337.088 382.136 339.196 397.263 352.331C406.217 360.105 412.538 370.478 415.89 381.853C419.712 394.823 418.674 394.779 418.674 394.779C418.674 394.779 446.455 374.132 449.458 357.613C450.96 363.995 463.348 380.139 462.222 395.53C461.44 406.219 451.4 419.025 447.206 426.689C445.128 430.486 442.249 434.623 442.277 438.951L442.325 446.211C442.325 446.211 436.318 442.41 431.813 437.201C427.308 431.992 424.306 425.375 421.302 424.436C415.296 422.559 395.774 422.184 395.774 422.184C395.774 422.184 386.765 429.317 369.12 427.064C351.475 424.812 328.2 420.307 320.316 421.808C312.432 423.31 270.386 431.945 270.386 431.945L254.619 401.537Z" fill="#3A00FF"/><path id="Stroke 55" d="M422.909 410.866C423.438 410.708 423.995 411.009 424.154 411.538L424.37 412.218L424.483 412.56C424.759 413.386 425.088 414.306 425.468 415.298C426.554 418.132 427.829 420.964 429.282 423.602C431.853 428.268 434.693 431.796 437.731 433.724C438.198 434.02 438.336 434.638 438.04 435.104C437.744 435.571 437.126 435.709 436.66 435.413C433.283 433.27 430.249 429.501 427.531 424.567C426.029 421.841 424.717 418.927 423.601 416.014C423.275 415.164 422.986 414.365 422.734 413.629L422.447 412.773L422.238 412.111C422.079 411.582 422.38 411.025 422.909 410.866Z" fill="white"/></g><g id="Group 64"><g id="Group 60"><mask id="mask0c34f45ee-d88d-4eff-9d6c-44fd4910d543" mask-type="alpha" maskUnits="userSpaceOnUse" x="254" y="337" width="209" height="109" fill="#ffffff"><path id="Clip 59" fill-rule="evenodd" clip-rule="evenodd" d="M345.468 338.655C328.713 341.954 320.541 349.031 317.006 353.269V353.269C314.605 356.146 311.888 358.736 308.872 360.961V360.961L254.619 400.973L270.385 431.381C270.385 431.381 312.432 422.747 320.316 421.245V421.245C328.199 419.743 351.475 424.249 369.119 426.501V426.501C386.764 428.753 395.774 421.621 395.774 421.621V421.621C395.774 421.621 415.295 421.997 421.301 423.873V423.873C424.305 424.812 427.308 431.428 431.812 436.637V436.637C436.318 441.846 442.324 445.647 442.324 445.647V445.647L442.277 438.387C442.248 434.059 445.127 429.922 447.205 426.125V426.125C451.4 418.462 461.44 405.656 462.221 394.966V394.966C463.348 379.574 450.959 363.432 449.457 357.05V357.05C446.525 373.181 419.962 393.249 418.719 394.181V394.181C418.869 393.97 419.173 392.434 415.889 381.291V381.291C412.537 369.916 406.216 359.542 397.262 351.767V351.767C385.77 341.789 372.215 337.361 358.487 337.362V337.362C354.145 337.362 349.785 337.805 345.468 338.655" fill="#ffffff"/></mask><g mask="url(#mask0c34f45ee-d88d-4eff-9d6c-44fd4910d543)"><path id="Fill 58" fill-rule="evenodd" clip-rule="evenodd" d="M449.082 348.039C440.002 348.039 432.529 354.864 431.481 363.662C430.788 363.58 430.088 363.525 429.373 363.525C423.619 363.525 418.52 366.277 415.279 370.522C412.621 364.889 407.098 360.888 400.579 360.401C400.619 359.914 400.653 359.425 400.653 358.927C400.653 349.13 392.712 341.188 382.915 341.188C378.711 341.188 374.853 342.658 371.813 345.102C369.218 338.527 362.82 333.867 355.322 333.867C349.897 333.867 345.049 336.31 341.795 340.145C338.733 337.631 334.816 336.12 330.545 336.12C320.748 336.12 312.432 341.059 312.432 350.855C312.432 360.651 320.748 371.597 330.545 371.597C335.97 371.597 340.818 369.155 344.072 365.318C347.134 367.833 351.051 369.344 355.322 369.344C359.527 369.344 362.7 367.354 365.74 364.909C367.054 370.939 374.75 375.257 379.044 374.271C379.004 374.759 377.003 391.212 395.21 394.215C395.21 394.261 394.506 413.925 416.608 413.736C425.536 413.661 434.984 405.616 436.224 397.031C443.272 395.271 448.205 390.873 449.082 383.516C449.774 383.598 448.367 383.516 449.082 383.516C458.878 383.516 466.82 375.574 466.82 365.777C466.82 355.981 458.878 348.039 449.082 348.039" fill="#1B0092"/></g></g><g id="Group 63"><mask id="mask1c34f45ee-d88d-4eff-9d6c-44fd4910d543" mask-type="alpha" maskUnits="userSpaceOnUse" x="254" y="337" width="209" height="109" fill="#ffffff"><path id="Clip 62" fill-rule="evenodd" clip-rule="evenodd" d="M345.468 338.655C328.713 341.954 320.541 349.031 317.006 353.269V353.269C314.605 356.146 311.888 358.736 308.872 360.961V360.961L254.619 400.973L270.385 431.381C270.385 431.381 312.432 422.747 320.316 421.245V421.245C328.199 419.743 351.475 424.249 369.119 426.501V426.501C386.764 428.753 395.774 421.621 395.774 421.621V421.621C395.774 421.621 415.295 421.997 421.301 423.873V423.873C424.305 424.812 427.308 431.428 431.812 436.637V436.637C436.318 441.846 442.324 445.647 442.324 445.647V445.647L442.277 438.387C442.248 434.059 445.127 429.922 447.205 426.125V426.125C451.4 418.462 461.44 405.656 462.221 394.966V394.966C463.348 379.574 450.959 363.432 449.457 357.05V357.05C446.525 373.181 419.962 393.249 418.719 394.181V394.181C418.869 393.97 419.173 392.434 415.889 381.291V381.291C412.537 369.916 406.216 359.542 397.262 351.767V351.767C385.77 341.789 372.215 337.361 358.487 337.362V337.362C354.145 337.362 349.785 337.805 345.468 338.655" fill="#ffffff"/></mask><g mask="url(#mask1c34f45ee-d88d-4eff-9d6c-44fd4910d543)"><path id="Fill 61" fill-rule="evenodd" clip-rule="evenodd" d="M449.082 342.972C440.002 342.972 432.529 349.797 431.481 358.594C430.788 358.512 430.088 358.457 429.373 358.457C423.619 358.457 418.52 361.209 415.279 365.455C412.621 359.822 408.438 354.908 401.921 354.422C401.961 353.934 400.653 354.357 400.653 353.859C400.653 344.062 392.712 336.12 382.915 336.12C378.711 336.12 375.256 334.802 372.216 337.246C369.62 330.671 362.82 328.8 355.322 328.8C349.897 328.8 345.049 331.242 341.795 335.078C338.733 332.564 334.816 331.052 330.545 331.052C320.748 331.052 312.807 338.993 312.807 348.79C312.807 351.852 315.008 351.627 316.373 354.14C319.377 359.669 323.81 366.529 330.545 366.529C335.97 366.529 340.818 364.087 344.072 360.25C347.134 362.765 351.051 364.277 355.322 364.277C359.527 364.277 363.384 362.806 366.424 360.362C368.863 366.542 374.666 371.014 381.582 371.53C381.542 372.017 381.508 372.507 381.508 373.004C381.508 382.519 389.003 390.26 398.408 390.701C398.407 390.746 398.401 390.79 398.401 390.837C398.401 400.633 406.343 408.576 416.139 408.576C425.067 408.576 432.434 401.972 433.674 393.387C440.722 391.628 446.097 385.669 446.973 378.312C447.666 378.394 448.367 378.449 449.082 378.449C458.878 378.449 466.82 370.506 466.82 360.71C466.82 350.913 458.878 342.972 449.082 342.972" fill="#ff56c2"/></g></g></g><g id="Group 141"><path id="Stroke 65" d="M314.961 361.86C315.494 362.005 315.808 362.554 315.663 363.087L315.547 363.553C315.517 363.682 315.483 363.831 315.446 364.001C315.279 364.766 315.111 365.652 314.954 366.65C313.315 377.065 314.136 388.609 319.208 399.474C320.675 402.617 322.476 405.614 324.631 408.445C324.965 408.884 324.88 409.512 324.441 409.846C324.001 410.181 323.374 410.096 323.039 409.656C320.797 406.711 318.923 403.591 317.395 400.319C312.132 389.043 311.282 377.114 312.978 366.339C313.118 365.45 313.267 364.642 313.417 363.925L313.492 363.573C313.554 363.29 313.612 363.043 313.664 362.831L313.733 362.562C313.878 362.029 314.428 361.714 314.961 361.86Z" fill="white"/><path id="Fill 67" fill-rule="evenodd" clip-rule="evenodd" d="M327.073 354.985C327.073 356.851 325.56 358.364 323.694 358.364C321.829 358.364 320.316 356.851 320.316 354.985C320.316 353.119 321.829 351.606 323.694 351.606C325.56 351.606 327.073 353.119 327.073 354.985" fill="#FF3800"/><path id="Fill 69" fill-rule="evenodd" clip-rule="evenodd" d="M335.845 359.787C335.845 361.653 334.332 363.166 332.466 363.166C330.601 363.166 329.088 361.653 329.088 359.787C329.088 357.922 330.601 356.409 332.466 356.409C334.332 356.409 335.845 357.922 335.845 359.787" fill="#8D25FF"/><path id="Fill 71" fill-rule="evenodd" clip-rule="evenodd" d="M335.695 346.518C336.328 348.274 335.419 350.21 333.664 350.843C331.909 351.477 329.972 350.568 329.339 348.813C328.705 347.057 329.614 345.121 331.37 344.488C333.125 343.854 335.061 344.763 335.695 346.518" fill="#FF3800"/><path id="Fill 73" fill-rule="evenodd" clip-rule="evenodd" d="M345.04 354.247C345.04 356.113 343.527 357.626 341.661 357.626C339.796 357.626 338.283 356.113 338.283 354.247C338.283 352.381 339.796 350.868 341.661 350.868C343.527 350.868 345.04 352.381 345.04 354.247" fill="#8D25FF"/><path id="Fill 75" fill-rule="evenodd" clip-rule="evenodd" d="M348.284 344.005C348.284 345.871 346.771 347.384 344.905 347.384C343.04 347.384 341.527 345.871 341.527 344.005C341.527 342.139 343.04 340.626 344.905 340.626C346.771 340.626 348.284 342.139 348.284 344.005" fill="#FF3800"/><path id="Fill 77" fill-rule="evenodd" clip-rule="evenodd" d="M354.154 358.641C354.154 360.507 352.641 362.02 350.775 362.02C348.909 362.02 347.396 360.507 347.396 358.641C347.396 356.775 348.909 355.262 350.775 355.262C352.641 355.262 354.154 356.775 354.154 358.641" fill="#008BF7"/><path id="Fill 79" fill-rule="evenodd" clip-rule="evenodd" d="M357.217 350.402C355.962 351.783 353.825 351.885 352.445 350.631C351.063 349.376 350.961 347.239 352.215 345.858C353.47 344.476 355.608 344.375 356.988 345.63C358.369 346.883 358.472 349.021 357.217 350.402" fill="#8D25FF"/><path id="Fill 81" fill-rule="evenodd" clip-rule="evenodd" d="M364.862 343.18C363.607 344.561 361.47 344.663 360.089 343.409C358.708 342.154 358.605 340.017 359.86 338.636C361.115 337.255 363.252 337.153 364.633 338.408C366.014 339.662 366.117 341.799 364.862 343.18" fill="#FF3800"/><path id="Fill 83" fill-rule="evenodd" clip-rule="evenodd" d="M372.956 347.92C371.701 349.301 369.564 349.403 368.183 348.149C366.802 346.894 366.699 344.757 367.954 343.376C369.209 341.995 371.346 341.893 372.727 343.148C374.108 344.402 374.211 346.539 372.956 347.92" fill="#8D25FF"/><path id="Fill 85" fill-rule="evenodd" clip-rule="evenodd" d="M382.414 353.162C384.251 352.832 386.007 354.054 386.337 355.891C386.666 357.726 385.444 359.483 383.607 359.812C381.771 360.142 380.015 358.921 379.685 357.084C379.355 355.247 380.577 353.491 382.414 353.162" fill="#8D25FF"/><path id="Fill 87" fill-rule="evenodd" clip-rule="evenodd" d="M379.597 343.213C381.434 342.884 383.19 344.106 383.519 345.942C383.849 347.778 382.627 349.535 380.79 349.864C378.954 350.194 377.198 348.973 376.868 347.136C376.538 345.299 377.76 343.543 379.597 343.213" fill="#FF3800"/><path id="Fill 89" fill-rule="evenodd" clip-rule="evenodd" d="M396.766 356.859C395.511 358.24 393.374 358.342 391.994 357.088C390.612 355.833 390.51 353.696 391.765 352.315C393.019 350.934 395.157 350.832 396.537 352.087C397.918 353.341 398.021 355.478 396.766 356.859" fill="#FF3800"/><path id="Fill 91" fill-rule="evenodd" clip-rule="evenodd" d="M398.373 368.711C397.118 370.092 394.981 370.194 393.601 368.94C392.219 367.685 392.117 365.548 393.372 364.166C394.627 362.785 396.764 362.683 398.144 363.938C399.525 365.192 399.628 367.329 398.373 368.711" fill="#8D25FF"/><path id="Fill 93" fill-rule="evenodd" clip-rule="evenodd" d="M408.313 369.812C407.058 371.193 404.921 371.295 403.541 370.041C402.16 368.786 402.057 366.649 403.312 365.267C404.567 363.886 406.704 363.784 408.084 365.039C409.465 366.293 409.568 368.43 408.313 369.812" fill="#FF3800"/><path id="Fill 95" fill-rule="evenodd" clip-rule="evenodd" d="M402.1 378.561C400.845 379.943 398.708 380.044 397.328 378.79C395.947 377.535 395.844 375.398 397.099 374.017C398.354 372.636 400.491 372.534 401.871 373.789C403.252 375.043 403.355 377.18 402.1 378.561" fill="#8D25FF"/><path id="Fill 97" fill-rule="evenodd" clip-rule="evenodd" d="M412.443 381.184C411.188 382.565 409.051 382.667 407.671 381.413C406.29 380.158 406.187 378.021 407.442 376.64C408.697 375.259 410.834 375.157 412.214 376.412C413.595 377.666 413.698 379.803 412.443 381.184" fill="#FF3800"/><path id="Fill 99" fill-rule="evenodd" clip-rule="evenodd" d="M415.601 391.562C414.346 392.943 412.209 393.045 410.828 391.791C409.447 390.536 409.344 388.399 410.599 387.018C411.854 385.637 413.991 385.535 415.372 386.79C416.753 388.044 416.856 390.181 415.601 391.562" fill="#FF3800"/><path id="Fill 101" fill-rule="evenodd" clip-rule="evenodd" d="M363.653 357.486C363.653 359.351 362.14 360.864 360.274 360.864C358.409 360.864 356.896 359.351 356.896 357.486C356.896 355.62 358.409 354.107 360.274 354.107C362.14 354.107 363.653 355.62 363.653 357.486" fill="#008BF7"/><path id="Fill 103" fill-rule="evenodd" clip-rule="evenodd" d="M373.351 355.509C373.351 357.375 371.838 358.888 369.973 358.888C368.107 358.888 366.594 357.375 366.594 355.509C366.594 353.643 368.107 352.13 369.973 352.13C371.838 352.13 373.351 353.643 373.351 355.509" fill="#008BF7"/><path id="Fill 105" fill-rule="evenodd" clip-rule="evenodd" d="M379.108 363.812C379.108 365.678 377.595 367.191 375.729 367.191C373.863 367.191 372.35 365.678 372.35 363.812C372.35 361.946 373.863 360.433 375.729 360.433C377.595 360.433 379.108 361.946 379.108 363.812" fill="#008BF7"/><path id="Fill 107" fill-rule="evenodd" clip-rule="evenodd" d="M388.839 367.592C388.839 369.458 387.326 370.971 385.461 370.971C383.595 370.971 382.082 369.458 382.082 367.592C382.082 365.726 383.595 364.213 385.461 364.213C387.326 364.213 388.839 365.726 388.839 367.592" fill="#008BF7"/><path id="Fill 109" fill-rule="evenodd" clip-rule="evenodd" d="M390.142 377.886C390.142 379.752 388.629 381.265 386.764 381.265C384.898 381.265 383.385 379.752 383.385 377.886C383.385 376.02 384.898 374.507 386.764 374.507C388.629 374.507 390.142 376.02 390.142 377.886" fill="#008BF7"/><path id="Fill 111" fill-rule="evenodd" clip-rule="evenodd" d="M398.682 384.396C398.682 386.262 397.169 387.775 395.303 387.775C393.437 387.775 391.924 386.262 391.924 384.396C391.924 382.53 393.437 381.017 395.303 381.017C397.169 381.017 398.682 382.53 398.682 384.396" fill="#008BF7"/><path id="Fill 113" fill-rule="evenodd" clip-rule="evenodd" d="M407.368 387.818C407.368 389.684 405.855 391.197 403.989 391.197C402.124 391.197 400.611 389.684 400.611 387.818C400.611 385.953 402.124 384.44 403.989 384.44C405.855 384.44 407.368 385.953 407.368 387.818" fill="#8D25FF"/><path id="Fill 115" fill-rule="evenodd" clip-rule="evenodd" d="M408.748 397.313C408.748 399.179 407.235 400.692 405.369 400.692C403.503 400.692 401.99 399.179 401.99 397.313C401.99 395.447 403.503 393.934 405.369 393.934C407.235 393.934 408.748 395.447 408.748 397.313" fill="#008BF7"/><path id="Fill 117" fill-rule="evenodd" clip-rule="evenodd" d="M416.883 403.968C416.883 405.834 415.37 407.347 413.504 407.347C411.638 407.347 410.125 405.834 410.125 403.968C410.125 402.103 411.638 400.59 413.504 400.59C415.37 400.59 416.883 402.103 416.883 403.968" fill="#008BF7"/><path id="Fill 119" fill-rule="evenodd" clip-rule="evenodd" d="M425.704 402.365C425.704 404.231 424.191 405.744 422.325 405.744C420.46 405.744 418.947 404.231 418.947 402.365C418.947 400.499 420.46 398.986 422.325 398.986C424.191 398.986 425.704 400.499 425.704 402.365" fill="#008BF7"/><path id="Fill 121" fill-rule="evenodd" clip-rule="evenodd" d="M431.949 393.41C431.949 395.276 430.436 396.789 428.57 396.789C426.704 396.789 425.191 395.276 425.191 393.41C425.191 391.544 426.704 390.031 428.57 390.031C430.436 390.031 431.949 391.544 431.949 393.41" fill="#FF3800"/><path id="Fill 123" fill-rule="evenodd" clip-rule="evenodd" d="M439.535 387.015C439.535 388.881 438.022 390.394 436.156 390.394C434.29 390.394 432.777 388.881 432.777 387.015C432.777 385.149 434.29 383.636 436.156 383.636C438.022 383.636 439.535 385.149 439.535 387.015" fill="#FF3800"/><path id="Fill 125" fill-rule="evenodd" clip-rule="evenodd" d="M444.691 377.606C445.724 379.161 445.301 381.257 443.748 382.291C442.194 383.324 440.097 382.902 439.064 381.348C438.031 379.794 438.453 377.697 440.006 376.664C441.56 375.63 443.657 376.052 444.691 377.606" fill="#FF3800"/><path id="Fill 127" fill-rule="evenodd" clip-rule="evenodd" d="M453.585 372.074C454.618 373.628 454.196 375.724 452.642 376.759C451.088 377.792 448.991 377.369 447.958 375.815C446.925 374.262 447.347 372.165 448.9 371.132C450.454 370.098 452.551 370.52 453.585 372.074" fill="#008BF7"/><path id="Fill 129" fill-rule="evenodd" clip-rule="evenodd" d="M451.842 362.645C450.806 362.153 449.55 362.191 448.526 362.872C446.972 363.905 446.55 366.002 447.583 367.556C448.616 369.11 450.714 369.532 452.268 368.499C453.201 367.877 453.683 367.148 453.729 366.108C453.564 365.76 452.145 363.468 451.842 362.645" fill="#FF3800"/><path id="Stroke 131" d="M413.412 393.151C413.588 392.628 414.155 392.346 414.678 392.522C415.202 392.698 415.483 393.265 415.307 393.789C411.565 404.92 404.566 412.57 395.28 417.271C390.634 419.623 385.672 421.103 380.661 421.883C377.571 422.363 374.917 422.518 372.923 422.486L372.306 422.469C371.755 422.439 371.332 421.969 371.361 421.417C371.388 420.905 371.796 420.503 372.296 420.472L372.493 420.475L372.633 420.479C374.547 420.532 377.21 420.395 380.353 419.906C385.169 419.157 389.933 417.736 394.377 415.486C403.211 411.014 409.843 403.765 413.412 393.151Z" fill="white"/><path id="Fill 133" fill-rule="evenodd" clip-rule="evenodd" d="M228.059 349.636L255.807 374.695L236.098 364.559L228.059 349.636Z" fill="#a05c2f"/><path id="Fill 135" fill-rule="evenodd" clip-rule="evenodd" d="M209.447 183.099L227.214 217.584L221.582 200.128L209.447 183.099Z" fill="#a05c2f"/><path id="Fill 137" fill-rule="evenodd" clip-rule="evenodd" d="M504.082 269.109L486.25 303.178L491.787 283.281L504.082 269.109Z" fill="#AC004A"/><path id="Fill 139" fill-rule="evenodd" clip-rule="evenodd" d="M290.283 252.498L319.189 351.044L324.445 346.727L297.791 256.627L290.283 252.498Z" fill="#ff56c2"/></g></g><path id="Path 6" fill-rule="evenodd" clip-rule="evenodd" d="M270.385 431.382V452.587L291.444 427.637L270.385 431.382Z" fill="#FF3800"/><path id="Path 6 Copy 2" fill-rule="evenodd" clip-rule="evenodd" d="M360 426L347.059 446.467L326 421.517C326 421.517 337.314 422.334 343 423.084C348.686 423.833 360 426 360 426Z" fill="#FFED53"/><path id="Path 6 Copy 4" fill-rule="evenodd" clip-rule="evenodd" d="M430.197 433.992L415.361 452.682L403.001 422C403.001 422 414.315 422.817 420.001 423.567C425.687 424.317 430.197 433.992 430.197 433.992Z" fill="#008BF7"/><path id="Path 6 Copy 5" fill-rule="evenodd" clip-rule="evenodd" d="M443.186 447.039L438.197 471.481L431 436C431 436 436.41 440.467 438.197 442.089C439.983 443.71 443.186 447.039 443.186 447.039Z" fill="#8D25FF"/><path id="Path 6 Copy" fill-rule="evenodd" clip-rule="evenodd" d="M293 427.264L306.819 450.623L318.446 422.119L293 427.264Z" fill="#FFA648"/><path id="Path 6 Copy 3" fill-rule="evenodd" clip-rule="evenodd" d="M400.611 422.49L386.389 454.351L366 427C366 427 376.342 427.869 383.009 427C386.801 426.506 390.01 423.355 395.872 421.517C396.882 421.2 400.611 422.49 400.611 422.49Z" fill="#56C807"/></g></g><g id="Head" transform="translate(401 96) scale(1 1)"><g id="Head/Mid"><path id="SKIN" fill-rule="evenodd" clip-rule="evenodd" d="M174.597 192.579C185.765 197.271 216.361 195.582 216.361 195.582C216.361 195.582 211.857 174.606 211.434 159.073C211.377 156.958 213.078 154.924 215.191 154.833C217.075 154.753 221.852 154.756 223.978 154.207C256.737 145.756 252.119 85.9616 243.861 62.4976C238.243 46.5396 225.983 36.0396 215.704 32.4646C194.639 25.1376 180.791 29.4616 167.652 36.7826C166.1 37.6466 143.578 52.8306 142.734 82.6766C142.179 102.297 154.685 120.93 154.7 120.969C155.498 123.08 150.055 130.683 143.86 141.663C140.864 146.975 135.93 154.709 132.316 161.372C132.316 161.372 152.26 186.572 174.597 192.579" fill="#c7763c"/><path id="Fill 3" fill-rule="evenodd" clip-rule="evenodd" d="M164.779 99.7889C166.8 103.29 166.965 106.979 165.147 108.029C163.329 109.079 160.217 107.091 158.195 103.59C156.174 100.088 156.008 96.3989 157.827 95.3499C159.645 94.2999 162.757 96.2879 164.779 99.7889" fill="#CEF367"/><path id="Fill 5" fill-rule="evenodd" clip-rule="evenodd" d="M153.054 174.821C153.063 174.822 153.072 174.823 153.081 174.824C153.132 174.833 153.182 174.842 153.233 174.851C153.174 174.841 153.114 174.831 153.054 174.821M36.0383 144.194C36.0413 144.198 36.0453 144.201 36.0483 144.205C35.9973 144.191 35.9453 144.176 35.8943 144.161C35.9423 144.173 35.9903 144.183 36.0383 144.194M212.162 74.2012C212.601 74.4942 213.049 74.7862 213.496 75.0792C215.348 76.2932 217.157 77.6032 218.926 78.9312C220.797 80.3282 222.688 81.6912 224.641 82.9772C225.762 83.7202 226.914 84.3782 228.121 84.9802C229.004 85.4222 229.928 85.8042 230.847 86.1782C231.927 86.6182 233.747 87.1492 234.896 87.3452C235.388 87.4292 235.886 87.5012 236.386 87.5582C236.549 87.5912 236.713 87.6282 236.876 87.6572C237.357 87.7452 237.845 87.8022 238.333 87.8102C238.837 87.8182 239.341 87.8212 239.849 87.8182C240.54 87.8102 241.345 87.5702 241.997 87.3762C243.346 86.9702 244.589 86.2972 245.765 85.5382C246.159 85.2842 246.53 84.9962 246.881 84.6852C247.594 84.0532 248.318 83.3682 248.888 82.5762C249.54 81.6702 250.126 80.6802 250.564 79.6522C250.81 79.0732 250.772 79.7592 250.955 79.1542C250.959 79.1202 251.208 77.7992 251.212 77.7642C251.24 77.5662 251.267 77.3682 251.294 77.1702C251.375 76.6032 251.421 76.0312 251.463 75.4602C251.46 75.1622 251.457 74.8662 251.454 74.5682C251.437 74.2722 251.436 73.9782 251.424 73.6822C251.386 72.7712 251.32 71.8582 251.224 70.9502C251.226 70.9492 251.228 70.9492 251.229 70.9492C251.218 70.8412 251.206 70.7342 251.194 70.6262C251.144 70.1852 251.091 69.7442 251.035 69.3052C251.002 69.1432 250.965 68.9812 250.929 68.8222C250.866 68.5332 250.804 68.2472 250.741 67.9622C250.69 67.7372 250.628 67.5162 250.573 67.2922C250.513 67.0522 250.45 66.8132 250.39 66.5742C250.393 66.5822 250.395 66.5912 250.399 66.5992C250.396 66.5902 250.393 66.5802 250.391 66.5712C250.393 66.5812 250.396 66.5912 250.4 66.5992C250.399 66.5952 250.397 66.5912 250.396 66.5862C250.398 66.5912 250.399 66.5952 250.4 66.6002C250.398 66.5932 250.396 66.5862 250.394 66.5792C250.396 66.5862 250.398 66.5922 250.401 66.5982C250.401 66.5982 250.401 66.5972 250.4 66.5972C250.401 66.5972 250.401 66.5982 250.401 66.5992C250.327 66.3442 250.253 66.0852 250.182 65.8262C250.12 65.6092 250.061 65.3882 249.995 65.1722C249.901 64.8592 249.807 64.5472 249.71 64.2352C249.554 63.7212 249.386 63.2152 249.221 62.7052C249.057 62.1982 248.889 61.6882 248.725 61.1782C248.714 61.1422 243.658 42.8352 228.483 34.1132C228.465 34.1032 228.449 34.0892 228.43 34.0792C220.007 29.6022 214.103 31.6012 213.532 31.4322C212.826 31.2232 210.622 25.5662 202.387 23.2482C200.596 22.7452 198.676 22.5942 196.832 22.3812C195.196 22.1862 193.547 22.1142 191.895 22.0422C191.313 22.0152 190.723 22.0002 190.137 22.0002C189.078 22.0002 188.02 22.0502 186.973 22.1642C185.004 22.3812 183.063 22.7002 181.117 23.0732C177.762 23.7172 174.485 24.8512 171.328 26.1192C168.09 27.4212 165.051 29.1642 162.117 31.0182C159 32.9892 156.153 35.3502 153.395 37.7632C150.965 39.8872 148.742 42.2012 146.473 44.4822C145.262 45.7002 144.063 46.9292 142.817 48.1132C141.551 49.3122 140.254 50.4432 138.895 51.5432C137.586 52.4682 136.254 53.3322 134.86 54.1432C133.614 54.8742 132.262 55.4412 130.91 55.9822C127.742 57.1162 124.489 57.9192 121.239 58.8022C117.703 59.7612 114.215 60.9152 110.825 62.2932C109.219 62.9442 107.66 63.6752 106.102 64.4252C104.567 65.1632 103.016 65.9132 101.559 66.7922C98.4503 68.6762 95.5903 70.9262 93.0983 73.5452C91.2263 75.5172 89.6833 77.7842 88.1803 80.0232C87.7013 80.7372 87.2433 81.4662 86.8403 82.2252C86.4383 82.9842 86.0573 83.7502 85.6883 84.5272C84.7663 86.4612 83.8483 88.3992 82.8213 90.2832C81.9573 91.8782 80.9343 93.3892 79.8643 94.8622C78.2393 96.7922 76.5123 98.6002 74.5513 100.207C73.4183 101.002 72.2703 101.737 71.0393 102.392C69.8673 103.02 68.6413 103.522 67.4103 104.029C64.4573 105.113 61.4073 105.924 58.4223 106.922C56.4423 107.584 54.5043 108.319 52.5673 109.095C50.9503 109.742 49.4143 110.606 47.9103 111.47C44.7423 113.29 41.8093 115.475 39.1923 117.987C37.2273 119.875 35.5823 122.018 34.1573 124.314C33.2743 125.741 32.4143 127.18 31.7033 128.695C30.8333 130.555 30.0473 132.426 29.5163 134.384C29.4293 134.879 29.3513 135.375 29.2813 135.872C29.2803 135.872 29.2793 135.873 29.2783 135.874C29.2743 135.899 29.2723 135.925 29.2683 135.951C29.2403 136.158 29.2193 136.365 29.1933 136.572C29.1503 136.916 29.1023 137.259 29.0683 137.604C29.0663 137.632 29.0673 137.66 29.0653 137.688C29.0623 137.748 29.0583 137.808 29.0543 137.869C29.0553 137.875 29.0583 137.882 29.0593 137.888C28.9773 139.359 28.9783 140.842 29.0753 142.319C29.1433 142.366 29.2123 142.413 29.2833 142.457C29.3233 142.467 29.3623 142.479 29.4013 142.488C29.3933 142.519 29.3803 142.548 29.3793 142.58C29.3673 142.785 29.5003 142.942 29.6873 143.014C31.2623 143.631 32.8713 144.148 34.4803 144.67C35.8553 145.112 37.2583 145.5 38.6483 145.896C40.1013 146.31 41.5583 146.729 43.0083 147.148C44.5583 147.597 46.1013 148.054 47.6483 148.503C49.0743 148.914 50.5043 149.302 51.9293 149.702C52.5823 149.885 53.2383 150.06 53.8903 150.258C54.5863 150.471 55.2853 150.68 55.9803 150.894C56.7383 151.122 57.4883 151.35 58.2463 151.567C59.0393 151.788 59.8323 152.013 60.6293 152.23C61.3403 152.424 62.0473 152.63 62.7543 152.835C63.4803 153.044 64.2153 153.227 64.9413 153.425C65.6563 153.615 66.3753 153.783 67.0903 153.962C67.7733 154.137 68.4653 154.289 69.1483 154.464C69.8943 154.654 70.6373 154.849 71.3793 155.039C71.8803 155.166 72.3833 155.28 72.8863 155.397C75.9293 156.321 78.9693 157.272 82.0343 158.113C85.2533 158.996 88.4723 159.849 91.7183 160.629C95.2863 161.485 106.906 163.996 108.406 164.384C109.035 164.548 109.668 164.693 110.293 164.856C111.097 165.062 111.898 165.275 112.703 165.496C114.113 165.884 115.539 166.23 116.961 166.596C117.672 166.779 118.383 166.957 119.094 167.14C119.762 167.311 120.426 167.498 121.09 167.669C122.535 168.046 123.992 168.37 125.449 168.701C126.246 168.88 127.039 169.082 127.836 169.276C128.586 169.455 129.332 169.637 130.082 169.82C131.182 170.088 132.287 170.339 133.393 170.586C133.719 170.962 145.246 173.466 150.587 174.395C150.55 174.388 150.513 174.382 150.476 174.375C150.648 174.405 150.821 174.435 150.992 174.465C151.054 174.476 151.115 174.487 151.175 174.497C151.161 174.495 151.147 174.492 151.134 174.49C151.747 174.597 152.362 174.703 152.977 174.809C152.97 174.807 152.963 174.806 152.956 174.805C152.984 174.81 153.009 174.815 153.035 174.819C153.181 174.843 153.328 174.869 153.474 174.894C153.58 174.912 153.686 174.931 153.792 174.95C153.998 174.985 154.206 175.011 154.413 175.042C155.028 175.196 155.645 175.341 156.264 175.478C157.138 175.679 158.012 175.876 158.893 176.051C159.029 176.078 159.164 176.105 159.3 176.131C161.151 176.562 206.378 187.691 175.125 155.912C171.561 152.288 171.588 138.694 170.64 133.685C168.012 119.795 161.61 118.313 156.75 113.589C149.617 106.655 149.46 98.4232 149.35 97.3472C149.322 96.8902 149.295 96.4342 149.288 95.9852C149.289 95.9422 149.291 95.8992 149.292 95.8562C149.315 95.5132 149.357 95.1712 149.4 94.8332C149.454 94.5042 149.509 94.1782 149.577 93.8522C149.648 93.5242 149.745 93.2042 149.843 92.8852C150.02 92.3062 150.234 91.7382 150.46 91.1772C150.463 91.1722 150.465 91.1662 150.468 91.1612C150.849 90.4402 151.298 89.7602 151.799 89.1142C152.05 88.8092 152.303 88.5082 152.585 88.2332C152.614 88.2052 152.647 88.1792 152.676 88.1512C152.717 88.1232 152.755 88.0922 152.796 88.0652C152.999 87.9282 153.198 87.7912 153.401 87.6502C153.554 87.5482 153.721 87.4562 153.878 87.3572C153.955 87.3102 154.033 87.2612 154.112 87.2142C154.172 87.1842 154.232 87.1542 154.292 87.1252C154.389 87.0752 154.487 87.0182 154.589 86.9762C154.706 86.9282 154.821 86.8792 154.935 86.8312C155.173 86.7512 155.41 86.6722 155.655 86.6072C155.887 86.5442 156.121 86.4962 156.357 86.4482C156.464 86.4342 156.572 86.4202 156.679 86.4052C156.819 86.3862 156.968 86.3862 157.108 86.3752C157.382 86.3602 157.659 86.3672 157.936 86.3712C158.186 86.3752 158.444 86.3792 158.694 86.3982C158.962 86.4182 159.224 86.4462 159.491 86.4792C159.96 86.5642 160.429 86.6532 160.893 86.7522C161.151 86.8052 161.409 86.8622 161.659 86.9352C161.929 87.0142 162.194 87.0942 162.46 87.1782C162.702 87.2552 162.941 87.3422 163.181 87.4252C163.317 87.4812 163.453 87.5382 163.589 87.5942C164.515 88.0202 165.413 88.4812 166.265 89.0332C166.878 89.4282 167.445 89.9162 168.023 90.3612C168.933 91.0662 169.835 91.7812 170.796 92.4132C171.73 93.0262 173.015 93.6232 174.116 93.0412C175.027 92.5612 175.187 91.5872 175.214 90.6812C175.238 89.7292 175.249 88.7662 175.359 87.8152C175.421 87.5182 175.507 87.2322 175.616 86.9462C175.73 86.7572 175.847 86.5702 175.976 86.3912C176.081 86.2802 176.191 86.1742 176.308 86.0752C176.484 85.9682 176.659 85.8772 176.847 85.7972C177.163 85.7062 177.48 85.6332 177.804 85.5842C178.304 85.5502 178.8 85.5612 179.3 85.6142C180.738 85.9112 182.132 86.4182 183.507 86.9392C184.511 87.3202 185.503 87.7272 186.499 88.1232C188.304 88.8392 190.12 89.6342 192.019 90.0912C193.347 90.4142 194.671 90.5902 196.038 90.6662C197.511 90.7462 199.019 90.6582 200.351 89.9772C201.745 89.2612 202.663 87.7772 202.8 86.2692C202.917 84.9712 202.671 83.6202 202.402 82.3482C202.292 81.8312 202.136 81.3212 202.003 80.8072C201.632 79.3602 201.218 77.9332 200.988 76.4562C200.956 76.0712 200.952 75.6982 200.988 75.3142C201.031 75.1382 201.077 74.9712 201.136 74.8072C201.234 74.6482 201.331 74.4992 201.441 74.3542C201.62 74.1682 201.812 74.0002 202.015 73.8412C202.316 73.6652 202.62 73.5092 202.941 73.3722C203.46 73.2092 203.984 73.0942 204.527 73.0102C205.894 72.9042 207.257 72.9912 208.617 73.1782C209.757 73.3862 210.864 73.7072 211.947 74.0932C212.019 74.1302 212.09 74.1652 212.162 74.2012" fill="#2E0BFF"/><path id="Fill 8" fill-rule="evenodd" clip-rule="evenodd" d="M215.869 190.866C217.101 191.219 218.134 191.427 218.506 191.523C221.019 192.168 223.47 192.967 225.988 193.591C230.462 194.694 234.994 195.539 239.489 196.542C241.862 197.066 244.225 197.628 246.589 198.186C248.716 198.685 250.855 199.118 253.003 199.517C255.35 199.959 257.685 200.425 260.016 200.949C262.292 201.461 264.557 202.011 266.833 202.506C269.655 203.126 272.518 203.517 275.348 204.066C275.919 204.175 276.476 203.717 276.556 203.163C276.593 202.896 276.518 202.657 276.386 202.457C276.423 202.362 276.459 202.267 276.478 202.158C276.578 201.572 276.686 200.989 276.769 200.402C276.853 199.815 276.882 199.216 276.936 198.625C277.048 197.36 277.165 196.095 277.273 194.829C277.381 193.539 277.511 192.245 277.536 190.95C277.564 189.631 277.552 188.312 277.506 186.992C277.456 185.694 277.402 184.391 277.277 183.097C277.153 181.844 276.994 180.595 276.782 179.355C276.345 176.771 275.652 174.232 274.849 171.741C274.45 170.505 274.009 169.292 273.523 168.085C273.261 167.423 272.982 166.774 272.682 166.129C272.433 165.596 272.146 165.072 271.875 164.551C271.251 163.369 270.589 162.208 269.952 161.034C269.64 160.456 269.32 159.877 269.028 159.286C268.77 158.77 268.529 158.246 268.271 157.725C267.565 156.283 266.876 154.827 266.337 153.31C266.161 152.672 266 152.033 265.857 151.387C265.707 150.692 265.599 149.989 265.515 149.281C265.356 147.9 265.274 146.515 265.2 145.13C265.162 143.817 265.154 142.508 265.187 141.19C265.224 139.858 265.299 138.527 265.366 137.191C265.432 135.825 265.482 134.46 265.524 133.095C265.566 131.776 265.607 130.452 265.574 129.133C265.541 127.76 265.453 126.378 265.249 125.021C265.05 123.706 264.787 122.399 264.475 121.105C263.818 118.408 263.048 115.736 261.941 113.189C261.383 111.907 260.742 110.675 260.072 109.451C259.431 108.278 258.786 107.108 258.158 105.93C257.562 104.815 256.954 103.712 256.339 102.609C255.981 101.96 255.619 101.315 255.261 100.665C254.965 100.133 254.653 99.6037 254.383 99.0587C253.971 98.2387 253.558 97.4187 253.196 96.5737C252.831 95.7227 252.487 94.8637 252.154 93.9997C252.021 93.5867 251.881 93.1747 251.781 92.7537C251.636 92.1457 251.498 91.5427 251.373 90.9307C251.253 90.3107 251.157 89.6907 251.065 89.0617C250.995 88.5807 250.974 88.0967 250.945 87.6127C250.945 86.8937 250.946 86.1797 250.978 85.4617C251.012 84.6547 251.07 83.8547 251.14 83.0477C251.299 81.2287 251.117 79.1257 251.163 77.3427C251.179 76.7617 251.036 73.1927 250.483 73.1427C250.45 73.1387 250.754 76.4507 250.722 76.4507C250.166 76.4507 249.742 76.8817 249.663 77.4247C249.526 78.3617 249.409 79.2977 249.297 80.2427C249.226 80.8217 249.147 81.4037 249.093 81.9867C249.055 82.4357 249.014 82.8857 248.976 83.3387C248.951 83.6217 248.914 83.9057 248.901 84.1877C248.876 84.8287 248.822 85.4657 248.822 86.1067C248.822 86.8807 248.827 87.6507 248.876 88.4247C248.897 88.7077 248.901 88.9947 248.943 89.2787C249.005 89.7027 249.068 90.1267 249.13 90.5517C249.172 90.8467 249.243 91.1387 249.301 91.4297C249.359 91.7177 249.417 92.0047 249.484 92.2917C249.567 92.6327 249.646 92.9737 249.729 93.3157C249.817 93.6987 249.963 94.0727 250.079 94.4517C250.499 95.8077 251.099 97.1107 251.685 98.4007C252.247 99.6287 252.905 100.807 253.558 101.985C254.179 103.096 254.803 104.203 255.411 105.319C256.068 106.534 256.717 107.753 257.375 108.973C257.766 109.701 258.178 110.421 258.574 111.145C258.969 111.874 259.327 112.615 259.693 113.359C259.872 113.73 260.022 114.117 260.184 114.495C260.351 114.874 260.5 115.265 260.642 115.657C260.903 116.38 261.154 117.103 261.398 117.829C261.651 118.704 261.891 119.58 262.128 120.464C262.357 121.329 262.54 122.208 262.74 123.086C263.13 124.821 263.309 126.579 263.438 128.35C263.467 129.676 263.458 130.995 263.422 132.325C263.385 133.632 263.327 134.943 263.281 136.254C263.235 137.532 263.127 138.81 263.089 140.092C263.052 141.452 263.023 142.809 263.056 144.175C263.094 145.594 263.164 147.017 263.293 148.432C263.414 149.751 263.559 151.079 263.892 152.365C264.076 153.077 264.255 153.788 264.5 154.484C264.721 155.108 264.991 155.716 265.258 156.323C265.741 157.43 266.294 158.508 266.814 159.603C267.788 161.65 268.966 163.59 270.019 165.596C270.531 166.578 271.022 167.564 271.434 168.593C271.828 169.571 272.234 170.547 272.57 171.549C272.664 171.844 272.758 172.139 272.852 172.432C273.193 173.53 273.547 174.633 273.823 175.751C274.11 176.929 274.41 178.111 274.614 179.305C274.826 180.558 274.993 181.811 275.138 183.072C275.26 184.148 275.311 185.228 275.366 186.308C275.384 186.919 275.392 187.526 275.405 188.137C275.417 188.79 275.442 189.444 275.43 190.097C275.4 191.429 275.305 192.757 275.196 194.084C275.092 195.345 274.976 196.606 274.864 197.867C274.809 198.488 274.751 199.108 274.697 199.728C274.643 200.31 274.539 200.889 274.452 201.472C274.439 201.555 274.421 201.637 274.404 201.72C272.693 201.405 270.971 201.155 269.264 200.82C266.946 200.366 264.644 199.842 262.342 199.301C260.178 198.798 258.006 198.29 255.816 197.882C253.432 197.432 251.043 196.991 248.67 196.471C246.298 195.95 243.938 195.381 241.574 194.831C239.306 194.303 237.021 193.828 234.744 193.349C233.588 193.104 232.426 192.863 231.269 192.621C230.083 192.376 228.897 192.088 227.715 191.822C225.605 191.344 223.507 190.794 221.41 190.262C219.286 189.718 217.382 189.141 215.482 188.543L215.869 190.866Z" fill="#2E0BFF"/><path id="Fill 10" fill-rule="evenodd" clip-rule="evenodd" d="M216.31 190.47C217.061 190.677 217.717 190.826 218.161 190.928C218.363 190.974 218.523 191.011 218.63 191.038C219.816 191.342 220.988 191.68 222.159 192.019C223.449 192.391 224.783 192.776 226.108 193.105C228.872 193.786 231.709 194.38 234.454 194.953C236.17 195.312 237.887 195.672 239.598 196.053C241.782 196.536 243.959 197.05 246.135 197.564L246.704 197.699C248.615 198.147 250.705 198.581 253.094 199.025C255.799 199.534 258.033 199.99 260.126 200.461C261.064 200.672 262.001 200.889 262.937 201.107C264.27 201.416 265.603 201.726 266.939 202.016C268.594 202.38 270.296 202.67 271.942 202.95C273.111 203.15 274.28 203.349 275.444 203.575C275.607 203.604 275.744 203.528 275.812 203.48C275.947 203.384 276.039 203.239 276.06 203.092C276.078 202.97 276.048 202.852 275.969 202.732L275.826 202.516L275.92 202.275C275.946 202.21 275.973 202.146 275.986 202.072L276.067 201.602C276.141 201.178 276.214 200.756 276.274 200.332C276.331 199.938 276.361 199.539 276.392 199.141L276.556 197.266C276.63 196.439 276.705 195.613 276.775 194.786L276.831 194.133C276.922 193.084 277.015 192 277.036 190.94C277.063 189.678 277.054 188.356 277.007 187.01C276.954 185.636 276.9 184.395 276.78 183.144C276.645 181.794 276.485 180.581 276.289 179.439C275.899 177.136 275.29 174.739 274.373 171.894C273.98 170.677 273.55 169.491 273.06 168.271C272.8 167.616 272.525 166.975 272.229 166.339C272.048 165.951 271.845 165.568 271.644 165.186L271.432 164.781C271.057 164.072 270.666 163.366 270.276 162.661C270.02 162.199 269.765 161.737 269.513 161.272L269.343 160.959C269.083 160.479 268.822 159.997 268.58 159.507C268.446 159.238 268.314 158.965 268.184 158.691C268.065 158.443 267.946 158.195 267.823 157.947C267.141 156.552 266.428 155.059 265.866 153.477C265.677 152.796 265.514 152.149 265.369 151.495C265.227 150.833 265.112 150.129 265.019 149.339C264.858 147.946 264.776 146.566 264.7 145.157C264.66 143.735 264.655 142.438 264.687 141.177C264.718 140.077 264.774 138.978 264.831 137.877L264.867 137.165C264.933 135.803 264.983 134.442 265.024 133.08C265.065 131.792 265.107 130.461 265.074 129.145C265.037 127.578 264.935 126.291 264.755 125.095C264.565 123.845 264.308 122.541 263.99 121.221C263.196 117.967 262.422 115.551 261.482 113.387C260.879 112.003 260.178 110.684 259.634 109.691L259.191 108.882C258.696 107.977 258.201 107.074 257.717 106.165C257.123 105.053 256.517 103.952 255.902 102.852L254.582 100.477C254.359 100.082 254.136 99.6861 253.935 99.2811C253.527 98.4701 253.105 97.6301 252.737 96.7711C252.369 95.9141 252.022 95.0491 251.687 94.1791L251.619 93.9701C251.501 93.6051 251.383 93.2401 251.295 92.8691C251.148 92.2561 251.01 91.6481 250.884 91.0311C250.761 90.3981 250.664 89.7701 250.571 89.1341C250.509 88.7111 250.484 88.2871 250.459 87.8621L250.446 87.6431C250.445 86.8871 250.446 86.1651 250.478 85.4391C250.513 84.6261 250.571 83.8191 250.643 83.0041C250.735 81.9391 250.707 80.7511 250.681 79.6031C250.663 78.8191 250.645 78.0481 250.664 77.3291C250.666 77.2261 250.666 77.0981 250.663 76.9531C250.366 76.9851 250.194 77.2491 250.158 77.4961C250.021 78.4291 249.905 79.3611 249.793 80.3021L249.741 80.7201C249.686 81.1561 249.631 81.5951 249.591 82.0321L249.446 83.6731C249.428 83.8521 249.409 84.0321 249.401 84.2101C249.392 84.4351 249.379 84.6631 249.367 84.8901C249.345 85.2961 249.322 85.7001 249.322 86.1071C249.322 86.8761 249.326 87.6301 249.375 88.3921L249.392 88.6651C249.402 88.8451 249.411 89.0261 249.437 89.2061L249.625 90.4791C249.653 90.6791 249.695 90.8741 249.736 91.0681L249.791 91.3321C249.853 91.6381 249.909 91.9081 249.971 92.1781L250.215 93.1971C250.271 93.4421 250.351 93.6761 250.429 93.9101C250.473 94.0421 250.517 94.1731 250.557 94.3051C250.953 95.5821 251.525 96.8411 252.079 98.0581L252.141 98.1941C252.675 99.3611 253.312 100.51 253.929 101.62L254.437 102.531C254.912 103.379 255.386 104.227 255.85 105.079L257.815 108.735C258.039 109.152 258.269 109.565 258.499 109.978L259.013 110.905C259.361 111.548 259.681 112.199 260.002 112.853L260.142 113.138C260.27 113.404 260.383 113.675 260.496 113.945L260.644 114.298C260.813 114.683 260.967 115.084 261.112 115.487C261.375 116.213 261.626 116.94 261.872 117.67C262.132 118.568 262.373 119.447 262.611 120.334C262.784 120.986 262.93 121.644 263.077 122.304L263.227 122.974C263.646 124.838 263.821 126.719 263.936 128.313C263.966 129.608 263.961 130.917 263.922 132.339C263.898 133.157 263.867 133.977 263.835 134.798L263.78 136.271C263.759 136.873 263.724 137.475 263.688 138.077C263.649 138.752 263.609 139.428 263.589 140.106C263.555 141.333 263.522 142.76 263.556 144.162C263.597 145.718 263.674 147.1 263.791 148.386C263.905 149.632 264.044 150.956 264.376 152.239L264.405 152.349C264.581 153.032 264.746 153.678 264.972 154.317C265.173 154.886 265.424 155.458 265.667 156.012L265.716 156.121C266.039 156.862 266.393 157.589 266.748 158.316C266.922 158.673 267.096 159.029 267.266 159.387C267.862 160.641 268.551 161.881 269.217 163.08C269.638 163.838 270.059 164.596 270.462 165.363C270.927 166.255 271.46 167.313 271.898 168.406L272.056 168.797C272.396 169.637 272.748 170.507 273.044 171.389L273.453 172.678C273.752 173.638 274.062 174.632 274.309 175.631L274.398 175.997C274.655 177.047 274.921 178.132 275.106 179.221C275.3 180.361 275.468 181.566 275.635 183.014C275.754 184.071 275.808 185.139 275.86 186.173L275.865 186.283C275.879 186.738 275.887 187.182 275.895 187.627L275.915 188.624C275.927 189.118 275.939 189.612 275.93 190.106C275.899 191.478 275.799 192.848 275.695 194.124C275.616 195.08 275.53 196.034 275.444 196.989L275.195 199.77C275.154 200.218 275.084 200.66 275.015 201.103L274.946 201.546C274.932 201.64 274.912 201.732 274.893 201.824L274.791 202.299L274.313 202.211C273.574 202.075 272.833 201.951 272.092 201.827C271.116 201.664 270.139 201.501 269.167 201.31C266.751 200.838 264.404 200.299 262.228 199.787L262.078 199.752C260 199.269 257.852 198.769 255.725 198.373L255.046 198.245C252.918 197.845 250.718 197.431 248.563 196.959C246.871 196.588 245.184 196.191 243.498 195.795L241.461 195.317C239.398 194.837 237.288 194.394 235.246 193.965L231.167 193.11C230.363 192.944 229.559 192.758 228.755 192.573L227.605 192.309C225.874 191.917 224.128 191.47 222.438 191.039L221.287 190.745C219.38 190.257 217.675 189.75 216.109 189.263L216.31 190.47ZM275.52 204.582C275.432 204.582 275.343 204.574 275.255 204.557C274.098 204.332 272.936 204.135 271.774 203.936C270.117 203.654 268.403 203.362 266.726 202.993C265.386 202.702 264.049 202.391 262.711 202.081C261.777 201.864 260.843 201.647 259.906 201.436C257.825 200.968 255.602 200.514 252.911 200.008C250.507 199.561 248.401 199.124 246.475 198.672L245.905 198.537C243.733 198.025 241.561 197.512 239.381 197.03C237.673 196.648 235.961 196.29 234.249 195.932C231.496 195.357 228.65 194.762 225.868 194.075C224.523 193.742 223.18 193.354 221.881 192.979C220.72 192.644 219.558 192.308 218.381 192.007C218.28 191.981 218.129 191.946 217.938 191.902C217.424 191.785 216.63 191.603 215.731 191.346L215.428 191.26L214.855 187.821L215.632 188.066C217.395 188.621 219.331 189.212 221.534 189.777L222.686 190.071C224.369 190.5 226.109 190.945 227.826 191.334L228.979 191.598C229.776 191.782 230.573 191.966 231.371 192.131L235.451 192.987C237.498 193.416 239.615 193.861 241.687 194.344L243.727 194.821C245.408 195.217 247.09 195.612 248.777 195.982C250.918 196.451 253.11 196.864 255.231 197.262L255.909 197.39C258.058 197.79 260.217 198.293 262.305 198.779L262.456 198.814C264.623 199.323 266.96 199.859 269.36 200.329C270.322 200.518 271.29 200.679 272.257 200.841C272.837 200.938 273.418 201.035 273.998 201.137L274.027 200.948C274.093 200.525 274.16 200.104 274.199 199.681L274.448 196.9C274.534 195.948 274.62 194.995 274.698 194.043C274.801 192.782 274.9 191.43 274.93 190.085C274.939 189.607 274.927 189.128 274.916 188.648L274.895 187.646C274.887 187.204 274.879 186.764 274.866 186.323L274.861 186.223C274.81 185.205 274.757 184.152 274.641 183.127C274.477 181.698 274.311 180.51 274.121 179.388C273.941 178.336 273.68 177.268 273.427 176.235L273.337 175.868C273.099 174.901 272.793 173.922 272.498 172.976L272.094 171.699C271.81 170.853 271.464 169.999 271.129 169.172L270.97 168.779C270.549 167.728 270.051 166.739 269.576 165.826C269.177 165.068 268.76 164.317 268.343 163.566C267.669 162.353 266.973 161.099 266.363 159.817C266.194 159.462 266.021 159.108 265.849 158.755C265.488 158.014 265.128 157.275 264.799 156.522L264.751 156.413C264.501 155.843 264.242 155.254 264.029 154.65C263.789 153.969 263.609 153.272 263.436 152.597L263.408 152.489C263.058 151.134 262.913 149.764 262.795 148.477C262.676 147.169 262.598 145.766 262.556 144.187C262.521 142.761 262.555 141.318 262.589 140.077C262.61 139.389 262.65 138.703 262.69 138.018C262.725 137.424 262.76 136.83 262.781 136.236L262.836 134.76C262.868 133.942 262.899 133.126 262.922 132.311C262.961 130.906 262.966 129.614 262.938 128.361C262.826 126.828 262.656 124.993 262.252 123.195L262.101 122.521C261.957 121.875 261.813 121.229 261.644 120.591C261.41 119.712 261.169 118.84 260.917 117.968C260.681 117.265 260.432 116.546 260.172 115.826C260.034 115.446 259.889 115.065 259.727 114.696L259.572 114.329C259.467 114.075 259.362 113.822 259.243 113.576L259.104 113.294C258.789 112.652 258.476 112.013 258.134 111.384L257.626 110.465C257.393 110.048 257.161 109.63 256.935 109.209L254.971 105.556C254.509 104.708 254.037 103.864 253.564 103.019L253.054 102.105C252.429 100.978 251.782 99.8121 251.231 98.6091L251.168 98.4721C250.602 97.2261 250.017 95.9381 249.602 94.5991L249.48 94.2271C249.392 93.9621 249.304 93.6961 249.242 93.4271L248.998 92.4101C248.932 92.1251 248.875 91.8471 248.819 91.5681L248.758 91.2761C248.712 91.0591 248.666 90.8411 248.635 90.6211L248.448 89.3511C248.417 89.1411 248.405 88.9301 248.393 88.7201L248.378 88.4621C248.327 87.6641 248.322 86.8931 248.322 86.1071C248.322 85.6821 248.345 85.2591 248.369 84.8361C248.381 84.6141 248.393 84.3911 248.402 84.1681C248.411 83.9681 248.431 83.7691 248.451 83.5721L248.595 81.9451C248.637 81.4911 248.693 81.0421 248.749 80.5951L248.801 80.1821C248.913 79.2341 249.03 78.2931 249.168 77.3521C249.258 76.7291 249.664 76.2381 250.201 76.0421C250.178 75.7351 250.142 75.2931 250.105 74.8491C249.951 72.9641 249.951 72.9641 250.133 72.7851L250.298 72.6241L250.528 72.6441C251.773 72.7571 251.668 77.1681 251.664 77.3561C251.645 78.0591 251.663 78.8131 251.681 79.5791C251.708 80.7551 251.736 81.9701 251.639 83.0911C251.568 83.8911 251.511 84.6821 251.477 85.4821C251.446 86.1941 251.445 86.9011 251.445 87.6121L251.457 87.8031C251.48 88.1991 251.503 88.5951 251.56 88.9901C251.651 89.6101 251.745 90.2221 251.864 90.8351C251.987 91.4371 252.123 92.0341 252.268 92.6371C252.35 92.9831 252.46 93.3221 252.57 93.6611L252.63 93.8471C252.951 94.6781 253.293 95.5321 253.656 96.3771C254.012 97.2081 254.428 98.0341 254.83 98.8341C255.024 99.2251 255.239 99.6061 255.453 99.9861L256.777 102.367C257.393 103.471 258.002 104.576 258.599 105.695C259.082 106.6 259.575 107.5 260.068 108.402L260.511 109.211C261.065 110.223 261.78 111.567 262.399 112.989C263.363 115.206 264.153 117.673 264.961 120.986C265.287 122.335 265.55 123.666 265.744 124.946C265.93 126.185 266.035 127.511 266.074 129.12C266.108 130.465 266.065 131.81 266.023 133.111C265.982 134.478 265.932 135.846 265.866 137.215L265.83 137.928C265.773 139.022 265.718 140.113 265.687 141.204C265.656 142.445 265.66 143.724 265.7 145.116C265.774 146.496 265.854 147.859 266.012 149.223C266.102 149.98 266.211 150.654 266.346 151.282C266.487 151.916 266.646 152.547 266.819 153.177C267.353 154.675 268.052 156.138 268.72 157.505C268.844 157.754 268.965 158.007 269.085 158.259C269.214 158.528 269.343 158.796 269.476 159.062C269.713 159.543 269.968 160.013 270.222 160.482L270.393 160.796C270.643 161.257 270.897 161.717 271.151 162.177C271.544 162.887 271.938 163.598 272.317 164.317L272.529 164.72C272.737 165.116 272.947 165.513 273.135 165.916C273.44 166.571 273.723 167.229 273.988 167.9C274.487 169.14 274.924 170.347 275.325 171.587C276.257 174.479 276.877 176.92 277.275 179.271C277.475 180.436 277.638 181.672 277.775 183.047C277.898 184.325 277.953 185.581 278.006 186.973C278.054 188.34 278.063 189.681 278.036 190.961C278.015 192.053 277.919 193.154 277.827 194.219L277.771 194.87C277.701 195.699 277.626 196.528 277.552 197.355L277.389 199.219C277.356 199.637 277.323 200.058 277.265 200.472C277.203 200.907 277.128 201.34 277.052 201.773L276.972 202.241C276.961 202.302 276.947 202.358 276.931 202.412C277.048 202.673 277.09 202.951 277.051 203.232C276.991 203.652 276.751 204.038 276.394 204.294C276.129 204.483 275.826 204.582 275.52 204.582V204.582Z" fill="#2E0BFF"/><path id="Fill 13" fill-rule="evenodd" clip-rule="evenodd" d="M160.88 118.73C160.613 118.73 160.346 118.624 160.149 118.413C150.61 108.2 146.671 99.7694 148.441 93.3524C150.101 87.3294 156.145 85.5194 156.401 85.4454C156.93 85.2914 157.486 85.5974 157.639 86.1274C157.793 86.6574 157.488 87.2114 156.959 87.3654C156.906 87.3814 151.713 88.9624 150.363 93.9044C148.828 99.5234 152.717 107.526 161.611 117.047C161.988 117.451 161.966 118.084 161.563 118.461C161.37 118.641 161.125 118.73 160.88 118.73" fill="white"/><path id="Fill 15" fill-rule="evenodd" clip-rule="evenodd" d="M244.971 75.4644C244.468 75.4644 244.035 75.0863 243.978 74.5743C242.519 61.4123 234.892 44.8083 223.138 38.5423C222.651 38.2823 222.467 37.6763 222.726 37.1893C222.986 36.7013 223.592 36.5163 224.079 36.7773C236.444 43.3693 244.449 60.6714 245.967 74.3544C246.027 74.9034 245.632 75.3974 245.083 75.4584C245.045 75.4624 245.008 75.4644 244.971 75.4644" fill="white"/><path id="Fill 17" fill-rule="evenodd" clip-rule="evenodd" d="M99.7002 155.439C99.6132 155.439 99.5242 155.427 99.4362 155.403L38.2182 138.674C37.6852 138.528 37.3712 137.978 37.5172 137.445C37.6622 136.912 38.2112 136.599 38.7452 136.744L99.9632 153.474C100.496 153.62 100.81 154.169 100.664 154.702C100.543 155.147 100.139 155.439 99.7002 155.439" fill="white"/><path id="Fill 19" fill-rule="evenodd" clip-rule="evenodd" d="M209.835 156.345C209.815 156.329 209.792 156.318 209.773 156.306C209.745 156.29 209.722 156.275 209.698 156.263C209.753 156.2 209.796 156.126 209.827 156.04C209.832 156.028 209.829 156.014 209.832 156.001C209.855 156.005 209.879 156.01 209.903 156.014C209.869 156.12 209.84 156.228 209.835 156.345" fill="#a05c2f"/><path id="Fill 21" fill-rule="evenodd" clip-rule="evenodd" d="M209.244 156.37C209.244 156.375 209.244 156.381 209.245 156.386H209.244C209.244 156.381 209.244 156.375 209.244 156.37" fill="#45B348"/><path id="Fill 23" fill-rule="evenodd" clip-rule="evenodd" d="M211.963 157.114C212.607 155.895 214.075 155.037 214.075 155.037C214.075 155.037 204.486 152.581 195.981 147.189C195.684 147.001 195.36 147.391 195.601 147.647C203.186 155.717 211.4 160.106 211.4 160.106C211.4 160.106 211.271 158.426 211.963 157.114" fill="#a05c2f"/></g></g><g id="Face" transform="translate(594 170) scale(1 1)"><g id="Face/Hearts"><g id="Group 33"><path id="Fill 1" fill-rule="evenodd" clip-rule="evenodd" d="M8.50063 29.6063C8.32563 29.6063 8.15463 29.5143 8.06363 29.3503C7.92863 29.1083 8.01563 28.8043 8.25663 28.6693L11.5366 26.8393C11.7776 26.7053 12.0826 26.7913 12.2166 27.0323C12.3516 27.2733 12.2656 27.5783 12.0236 27.7123L8.74363 29.5433C8.66663 29.5853 8.58363 29.6063 8.50063 29.6063" fill="#CEF367"/><path id="Fill 4" fill-rule="evenodd" clip-rule="evenodd" d="M13.9559 34.139C13.8609 34.139 13.7659 34.112 13.6809 34.056C13.4499 33.903 13.3869 33.593 13.5389 33.363L15.6129 30.232C15.7659 30.001 16.0749 29.938 16.3059 30.091C16.5369 30.243 16.5999 30.554 16.4469 30.784L14.3729 33.915C14.2769 34.06 14.1179 34.139 13.9559 34.139" fill="#CEF367"/><path id="Fill 6" fill-rule="evenodd" clip-rule="evenodd" d="M20.2746 36.6834C20.2436 36.6834 20.2126 36.6804 20.1816 36.6744C19.9096 36.6234 19.7316 36.3624 19.7826 36.0904L20.4796 32.3994C20.5296 32.1284 20.7946 31.9524 21.0636 32.0014C21.3346 32.0524 21.5126 32.3134 21.4616 32.5854L20.7656 36.2764C20.7206 36.5164 20.5106 36.6834 20.2746 36.6834" fill="#CEF367"/><path id="Fill 8" fill-rule="evenodd" clip-rule="evenodd" d="M27.3204 37.2196C27.0714 37.2196 26.8554 37.0336 26.8244 36.7806L26.3674 33.0526C26.3344 32.7786 26.5284 32.5286 26.8024 32.4956C27.0844 32.4566 27.3264 32.6566 27.3604 32.9306L27.8174 36.6586C27.8504 36.9326 27.6554 37.1826 27.3824 37.2156C27.3614 37.2186 27.3404 37.2196 27.3204 37.2196" fill="#CEF367"/><path id="Fill 10" fill-rule="evenodd" clip-rule="evenodd" d="M33.9959 35.033C33.8459 35.033 33.6979 34.966 33.5989 34.838L31.3099 31.859C31.1419 31.64 31.1829 31.326 31.4019 31.158C31.6219 30.99 31.9349 31.032 32.1029 31.25L34.3919 34.228C34.5599 34.448 34.5189 34.761 34.2999 34.929C34.2089 34.999 34.1019 35.033 33.9959 35.033" fill="#CEF367"/><path id="Fill 12" fill-rule="evenodd" clip-rule="evenodd" d="M52.7148 39.9281C52.6478 39.9281 52.5798 39.9141 52.5138 39.8861C52.2608 39.7751 52.1468 39.4791 52.2578 39.2271L53.7698 35.7881C53.8808 35.5361 54.1748 35.4211 54.4288 35.5321C54.6818 35.6431 54.7968 35.9381 54.6848 36.1911L53.1728 39.6291C53.0908 39.8171 52.9068 39.9281 52.7148 39.9281" fill="#CEF367"/><path id="Fill 14" fill-rule="evenodd" clip-rule="evenodd" d="M46.955 35.91C46.799 35.91 46.646 35.838 46.548 35.702C46.387 35.477 46.438 35.165 46.663 35.004L49.712 32.812C49.936 32.651 50.248 32.702 50.411 32.926C50.572 33.151 50.52 33.463 50.296 33.624L47.247 35.816C47.158 35.88 47.056 35.91 46.955 35.91" fill="#CEF367"/><path id="Fill 16" fill-rule="evenodd" clip-rule="evenodd" d="M39.8031 52.4407L34.0691 51.4897C33.7971 51.4447 33.6131 51.1867 33.6581 50.9147C33.7021 50.6427 33.9571 50.4517 34.2331 50.5037L38.9741 51.2897L43.2621 24.4717C43.3051 24.1997 43.5601 24.0127 43.8351 24.0567C44.1071 24.1007 44.2931 24.3567 44.2491 24.6297L39.8031 52.4407Z" fill="white"/><path id="Fill 18" fill-rule="evenodd" clip-rule="evenodd" d="M25.3535 58.5535C27.7905 58.5565 29.6165 58.0825 30.5275 57.7825C31.2725 57.5365 32.0565 57.4295 32.8335 57.5305C33.4535 57.6105 34.0075 57.8835 34.7215 58.5625L35.6465 59.7415C35.7005 59.8065 36.9735 58.6095 36.9735 58.6095C38.1415 58.0855 39.4785 59.4685 39.8605 60.3195C40.2185 60.9875 40.1895 61.7965 39.7845 62.4355C39.4175 63.0145 39.0265 63.6095 39.0265 63.6095C37.7155 65.2175 36.8465 66.7755 33.7125 66.8915C31.5615 66.9715 29.4325 66.2865 27.5645 65.0765L21.3945 58.7965C21.0725 58.5135 21.0425 58.3625 21.0425 58.3625C21.1575 58.3345 23.8945 58.5525 25.3535 58.5535" fill="#7882FD"/><path id="Fill 20" fill-rule="evenodd" clip-rule="evenodd" d="M38.6605 63.1834C36.9655 63.1374 35.2945 62.9814 33.6355 62.5764C29.4995 61.5644 21.1225 58.3804 21.0425 58.3624C21.0745 58.4964 21.2765 58.7214 21.3895 58.8284L27.1385 65.2074C27.3555 65.4484 27.5955 65.6654 27.8615 65.8384C29.6015 66.9694 31.5515 67.5984 33.5175 67.5184C36.6035 67.3934 37.4595 65.7204 38.7505 63.9954C38.7505 63.9954 38.9665 63.6364 39.2265 63.1944C39.0335 63.1924 38.8435 63.1884 38.6605 63.1834" fill="#D7D8FF"/><path id="Fill 23" fill-rule="evenodd" clip-rule="evenodd" d="M10.8516 16.9676C11.0956 16.6876 11.3176 16.3746 11.5876 16.1316C13.4786 14.4286 15.6416 13.2986 17.8426 12.2876C18.8256 11.8366 19.8916 11.6406 20.9136 11.2996C22.5286 10.7596 24.1016 11.0516 25.6646 11.3786C26.6026 11.5746 27.5306 11.8426 28.4426 12.1466C29.7136 12.5706 30.9626 13.0666 32.2256 13.5166C33.3626 13.9216 34.5116 14.2876 35.6446 14.7056C37.4076 15.3546 37.9266 16.2046 37.7616 18.3276C37.6876 19.2786 37.4556 20.2216 37.2766 21.2816C37.1186 21.2556 36.8496 21.2796 36.6466 21.1656C33.5186 19.4006 30.3896 17.6446 27.0576 16.3516C25.4196 15.7166 23.8406 14.9576 22.0676 14.7376C19.7346 14.4466 17.4596 14.6976 15.2076 15.5296C13.9666 15.9866 12.7476 16.5266 11.5166 17.0246C11.3436 17.0936 11.1626 17.1336 10.9856 17.1866C10.9406 17.1136 10.8956 17.0406 10.8516 16.9676" fill="#2E0BFF"/><path id="Fill 26" fill-rule="evenodd" clip-rule="evenodd" d="M56.2854 17.3109C55.6474 17.3329 56.4514 17.2789 55.8134 17.2919C54.6064 17.3169 53.4004 17.3019 52.1934 17.3399C50.3154 17.3989 49.5544 18.0419 49.0404 20.1079C48.8104 21.0339 48.7324 22.0019 48.5684 23.0649C48.7264 23.0889 48.9734 23.1969 49.2024 23.1529C51.8314 22.6409 53.7804 22.1119 56.4264 21.8159C56.4314 21.7939 56.2444 17.4399 56.2854 17.3109" fill="#2E0BFF"/><path id="Fill 29" fill-rule="evenodd" clip-rule="evenodd" d="M32.1356 20.1317C29.5396 16.7277 26.1776 20.8927 25.4896 21.8197C25.0886 20.8387 22.8396 15.8657 19.4546 18.5697C15.7776 21.5067 24.1056 30.2607 24.4046 30.5727L24.4026 30.5857C24.4026 30.5857 24.4096 30.5807 24.4106 30.5797L24.4186 30.5877L24.4196 30.5747C24.7836 30.3457 34.9896 23.8747 32.1356 20.1317" fill="#7882FD"/><path id="Fill 31" fill-rule="evenodd" clip-rule="evenodd" d="M54.7399 23.6068C54.0359 23.4118 53.6509 23.2488 52.7609 23.9598C50.6239 25.6658 52.0539 29.2948 54.0829 31.9598C54.4429 29.1158 54.6449 23.8838 54.7399 23.6068" fill="#7882FD"/></g></g></g><g id="Hat" transform="translate(482 88) scale(215 265)"><g id="Hat/None" stroke="none" stroke-width="1" fill="none" fill-rule="evenodd" fill-opacity="0"/></g><g id="Facial Hair" transform="translate(601 217) scale(62 16)"><g id="Facial Hair/None" stroke="none" stroke-width="1" fill="none" fill-rule="evenodd" fill-opacity="0"/></g><g id="Earrings" transform="translate(541 195) scale(1 1)"><g id="Earrings/Rectangle Dangles"><g id="Group 6"><g id="Group 3"><path id="Fill 1" fill-rule="evenodd" clip-rule="evenodd" d="M35.5972 21.9686C35.5972 25.8176 32.4772 28.9376 28.6282 28.9376C24.7802 28.9376 21.6602 25.8176 21.6602 21.9686C21.6602 18.1196 24.7802 14.9996 28.6282 14.9996C32.4772 14.9996 35.5972 18.1196 35.5972 21.9686" fill="#5350D1"/></g><path id="Fill 4" fill-rule="evenodd" clip-rule="evenodd" d="M20.5 68.1078H36.054V35.3788H20.5V68.1078ZM15.5 73.1078H41.054V30.3788H15.5V73.1078Z" fill="#5350D1"/></g></g></g><g id="Pride Glasses" transform="translate(547 174) scale(131 35)"><g id="Pride Glasses/None" stroke="none" stroke-width="1" fill="none" fill-rule="evenodd" fill-opacity="0"/></g></g></svg>