<svg viewBox="1350 1845.8646616541355 300.0000000000003 187.96992481202977" xmlns="http://www.w3.org/2000/svg" overflow="visible" xmlns:xlink="http://www.w3.org/1999/xlink" width="300.0000000000003px" height="187.96992481202977px"><g id="Master/Stickers/Ovaries" stroke="none" stroke-width="1" fill="none" fill-rule="evenodd"><g id="Group-14" transform="translate(1368.000000, 1849.000000)"><path d="M251.1851,5.7508 C234.6331,-4.3942 221.9271,5.4378 213.5201,11.9438 C207.4371,16.6498 202.1891,20.4358 195.1461,20.4358 C183.9881,20.4358 162.7291,0.0008 132.4251,0.0008 C102.1211,0.0008 83.8881,20.4358 68.9471,20.4358 C61.9081,20.4358 56.6561,16.6508 50.5741,11.9438 C42.1681,5.4368 29.4641,-4.3952 12.9091,5.7508 C1.9581,12.4618 0.1251,21.4418 0.0071,26.1978 C-0.1989,34.4778 4.0071,43.0228 12.5081,51.5958 C17.9071,57.0408 23.2831,60.7168 23.5091,60.8708 C24.7291,61.7008 26.1151,62.0988 27.4861,62.0988 C29.7521,62.0978 31.9791,61.0128 33.3521,58.9988 C35.5571,55.7648 34.7211,51.3538 31.4891,49.1458 C31.4451,49.1148 26.9811,46.0478 22.5791,41.6088 C16.9841,35.9658 14.0821,30.7588 14.1871,26.5488 C14.2691,23.2168 16.3331,20.2878 20.3211,17.8448 C27.7491,13.2898 32.6001,15.9668 41.8931,23.1608 C48.7631,28.4768 57.3141,35.0808 69.5091,34.6088 C73.3361,34.4578 77.2621,33.2658 80.9991,31.5808 C82.5461,41.4608 86.7671,55.9828 97.8561,72.4538 C101.1761,77.3848 102.1711,83.5218 100.5851,89.2888 C98.6021,96.5018 98.5161,103.5388 100.3221,110.7998 C101.9001,117.1428 104.8741,123.6018 109.6831,131.1278 C117.6251,143.5598 121.6561,150.1288 121.6561,150.1288 L143.1931,150.1308 C143.1931,150.1308 147.2171,143.5698 155.1661,131.1278 C159.9751,123.6018 162.9491,117.1428 164.5271,110.7998 C166.3331,103.5388 166.2471,96.5018 164.2641,89.2888 C162.6781,83.5218 163.6721,77.3848 166.9931,72.4538 C177.9671,56.1548 182.2141,41.7628 183.8011,31.8898 C187.3251,33.4078 190.9971,34.4668 194.5841,34.6088 C206.7921,35.0908 215.3321,28.4768 222.2011,23.1608 C231.4941,15.9678 236.3421,13.2898 243.7741,17.8448 C247.7611,20.2878 249.8251,23.2168 249.9081,26.5488 C250.0121,30.7588 247.1101,35.9658 241.5151,41.6088 C237.1181,46.0428 232.6431,49.1198 232.6001,49.1488 C229.3651,51.3568 228.5321,55.7698 230.7401,59.0038 C232.1131,61.0168 234.3381,62.0998 236.6031,62.0998 C237.9801,62.0998 239.3721,61.6988 240.5951,60.8648 C240.8221,60.7088 246.2241,57.0038 251.5861,51.5958 C260.0871,43.0238 264.2931,34.4788 264.0871,26.1958 C263.9681,21.4408 262.1341,12.4618 251.1851,5.7508" id="Fill-1" fill="#A1D5E5"/><path d="M93.9668086,47.5538084 L94.0468001,51.5530085 C94.2033784,59.3811932 97.710989,65.3675342 104.841815,71.9120507 L105.249318,72.2831073 C109.566945,76.1844134 113.24466,80.5142557 116.325616,85.1962965 C121.25729,92.6908178 124.444404,100.703202 126.241311,108.715651 C126.871712,111.526621 127.284053,114.144161 127.521035,116.506203 L127.602464,117.385859 C127.664387,118.119852 127.699399,118.724606 127.715282,119.188556 L127.725491,119.650489 L127.755003,123.65038 L119.75522,123.709403 L119.725709,119.709511 C119.725198,119.640293 119.719904,119.453656 119.704878,119.157611 L119.671437,118.600112 C119.644546,118.208019 119.608217,117.775465 119.560998,117.304829 C119.355131,115.252919 118.992676,112.952056 118.435205,110.466283 C116.838196,103.345183 114.005585,96.2240175 109.642717,89.5938927 C107.087396,85.710646 104.069267,82.1058867 100.551439,78.829454 L99.8859812,78.2189826 C91.1511706,70.3269442 86.4218412,62.5574634 86.0630581,52.2484925 L86.0483999,51.7129915 L85.9684084,47.7137914 L93.9668086,47.5538084 Z" id="Stroke-4" fill="#000" fill-rule="nonzero"/><path d="M170.504991,47.5538084 L178.503392,47.7137914 L178.4234,51.7129915 C178.211848,62.2895867 173.47123,70.1908746 164.585918,78.2188927 C160.781606,81.6563796 157.544111,85.4679431 154.829083,89.5938927 C150.466215,96.2240175 147.633604,103.345183 146.036595,110.466283 C145.479124,112.952056 145.116669,115.252919 144.910802,117.304829 L144.84796,117.981924 C144.820441,118.305894 144.798639,118.607773 144.781941,118.886559 L144.746617,119.672681 L144.71658,123.709403 L136.716797,123.65038 L136.746309,119.650489 C136.750915,119.026227 136.80516,117.957472 136.950765,116.506203 C137.187747,114.144161 137.600088,111.526621 138.230489,108.715651 C140.027396,100.703202 143.21451,92.6908178 148.146184,85.1962965 C151.055976,80.7743691 154.498062,76.666594 158.508879,72.9372041 L159.222581,72.2830174 C166.490132,65.7166715 170.129427,59.7536979 170.412556,51.9941624 L170.425,51.5530085 L170.504991,47.5538084 Z" id="Stroke-6" fill="#000" fill-rule="nonzero"/><path d="M245.48,49.846 C244.017,37.669 230.662,33.441 215.04,35.319 C203.9,36.657 194.646,40.753 190.766,47.4 C190.293,46.837 189.813,46.281 189.312,45.747 C180.076,35.904 166.6,40.555 166.03,40.758 C163.451,41.677 162.09,44.518 163.008,47.097 C163.928,49.676 166.746,51.028 169.327,50.109 C169.652,49.998 177.322,47.459 182.082,52.532 C183.893,54.462 185.651,56.956 187.352,59.367 C190.79,64.242 198.139,78.221 219.843,75.292 C235.437,73.189 246.943,62.022 245.48,49.846" id="Fill-8" fill="#EFEED8"/><path d="M19.3619,49.846 C20.8249,37.669 34.1799,33.441 49.8019,35.319 C60.9419,36.657 70.1959,40.753 74.0769,47.4 C74.5499,46.837 75.0289,46.281 75.5299,45.747 C84.7659,35.904 98.2429,40.555 98.8119,40.758 C101.3909,41.677 102.7529,44.518 101.8339,47.097 C100.9149,49.676 98.0959,51.028 95.5149,50.109 C95.1909,49.998 87.5209,47.459 82.7599,52.532 C80.9489,54.462 79.1909,56.956 77.4899,59.367 C74.0529,64.242 66.7029,78.221 44.9989,75.292 C29.4059,73.189 17.8989,62.022 19.3619,49.846" id="Fill-10" fill="#EFEED8"/><path d="M162.296939,17.7280984 L165.393474,25.1045391 L161.705267,26.6528066 C145.383416,33.5045354 128.106165,33.5045354 111.93192,29.4305588 C109.572885,28.836364 107.443665,28.1978994 105.575228,27.5561386 L105.029585,27.366138 C104.338532,27.1220673 103.794135,26.9160542 103.405661,26.7601403 L103.143685,26.6527867 L99.4554984,25.1044718 L102.552128,17.7280984 L106.395705,19.3392272 L106.685333,19.451902 C107.103543,19.6122014 107.601141,19.7932422 108.174003,19.9900058 C109.836273,20.5609534 111.751323,21.1351971 113.885932,21.6728634 C128.296504,25.3026052 143.629156,25.3593199 157.928596,19.557126 L158.608733,19.2763934 L162.296939,17.7280984 Z" id="Stroke-12" fill="#000" fill-rule="nonzero"/></g></g></svg>