<svg viewBox="1350 1733.082706766917 300.0000000000003 263.15789473684237" xmlns="http://www.w3.org/2000/svg" overflow="visible" xmlns:xlink="http://www.w3.org/1999/xlink" width="300.0000000000003px" height="263.15789473684237px"><g id="Master/Stickers/Pills" stroke="none" stroke-width="1" fill="none" fill-rule="evenodd"><g id="Group-2" transform="translate(1361.000000, 1735.000000)"><g id="Group" transform="translate(57.000000, 37.000000) rotate(-55.000000) translate(-57.000000, -37.000000) translate(41.000000, -3.000000)"><path d="M31.712,39.641 L-2.34479103e-13,39.641 L-2.34479103e-13,15.857 C-2.34479103e-13,7.1 7.1,4.26325641e-14 15.857,4.26325641e-14 C24.613,4.26325641e-14 31.712,7.1 31.712,15.857 L31.712,39.641 Z" id="Fill-1" fill="#EDEDDD"/><path d="M15.8566,79.2806 L15.8566,79.2806 C7.0996,79.2806 0.000599999999,72.1816 0.000599999999,63.4256 L0.000599999999,39.6406 L31.7116,39.6406 L31.7116,63.4256 C31.7116,72.1816 24.6136,79.2806 15.8566,79.2806" id="Fill-4" fill="#FFA896"/></g><g id="Group-Copy-4" transform="translate(227.000000, 100.000000) rotate(135.000000) translate(-227.000000, -100.000000) translate(211.000000, 60.000000)"><path d="M31.712,39.641 L-2.34479103e-13,39.641 L-2.34479103e-13,15.857 C-2.34479103e-13,7.1 7.1,4.26325641e-14 15.857,4.26325641e-14 C24.613,4.26325641e-14 31.712,7.1 31.712,15.857 L31.712,39.641 Z" id="Fill-1" fill="#EDEDDD"/><path d="M15.8566,79.2806 L15.8566,79.2806 C7.0996,79.2806 0.000599999999,72.1816 0.000599999999,63.4256 L0.000599999999,39.6406 L31.7116,39.6406 L31.7116,63.4256 C31.7116,72.1816 24.6136,79.2806 15.8566,79.2806" id="Fill-4" fill="#FFA896"/></g><g id="Group-Copy" transform="translate(52.000000, 215.000000) rotate(190.000000) translate(-52.000000, -215.000000) translate(36.000000, 175.000000)"><path d="M31.712,39.641 L-2.34479103e-13,39.641 L-2.34479103e-13,15.857 C-2.34479103e-13,7.1 7.1,4.26325641e-14 15.857,4.26325641e-14 C24.613,4.26325641e-14 31.712,7.1 31.712,15.857 L31.712,39.641 Z" id="Fill-1" fill="#EDEDDD"/><path d="M15.8566,79.2806 L15.8566,79.2806 C7.0996,79.2806 0.000599999999,72.1816 0.000599999999,63.4256 L0.000599999999,39.6406 L31.7116,39.6406 L31.7116,63.4256 C31.7116,72.1816 24.6136,79.2806 15.8566,79.2806" id="Fill-4" fill="#73C8FF"/></g><g id="Group-Copy-5" transform="translate(155.000000, 142.000000) rotate(-90.000000) translate(-155.000000, -142.000000) translate(139.000000, 102.000000)"><path d="M31.712,39.641 L-2.34479103e-13,39.641 L-2.34479103e-13,15.857 C-2.34479103e-13,7.1 7.1,4.26325641e-14 15.857,4.26325641e-14 C24.613,4.26325641e-14 31.712,7.1 31.712,15.857 L31.712,39.641 Z" id="Fill-1" fill="#EDEDDD"/><path d="M15.8566,79.2806 L15.8566,79.2806 C7.0996,79.2806 0.000599999999,72.1816 0.000599999999,63.4256 L0.000599999999,39.6406 L31.7116,39.6406 L31.7116,63.4256 C31.7116,72.1816 24.6136,79.2806 15.8566,79.2806" id="Fill-4" fill="#73C8FF"/></g><g id="Group-Copy-2" transform="translate(43.000000, 126.000000) rotate(75.000000) translate(-43.000000, -126.000000) translate(27.000000, 86.000000)"><path d="M31.712,39.641 L-2.34479103e-13,39.641 L-2.34479103e-13,15.857 C-2.34479103e-13,7.1 7.1,4.26325641e-14 15.857,4.26325641e-14 C24.613,4.26325641e-14 31.712,7.1 31.712,15.857 L31.712,39.641 Z" id="Fill-1" fill="#FFA896"/><path d="M15.8566,79.2806 L15.8566,79.2806 C7.0996,79.2806 0.000599999999,72.1816 0.000599999999,63.4256 L0.000599999999,39.6406 L31.7116,39.6406 L31.7116,63.4256 C31.7116,72.1816 24.6136,79.2806 15.8566,79.2806" id="Fill-4" fill="#FFEBA1"/></g><g id="Group-Copy-6" transform="translate(240.000000, 199.000000) rotate(-140.000000) translate(-240.000000, -199.000000) translate(224.000000, 159.000000)"><path d="M31.712,39.641 L-2.34479103e-13,39.641 L-2.34479103e-13,15.857 C-2.34479103e-13,7.1 7.1,4.26325641e-14 15.857,4.26325641e-14 C24.613,4.26325641e-14 31.712,7.1 31.712,15.857 L31.712,39.641 Z" id="Fill-1" fill="#FFA896"/><path d="M15.8566,79.2806 L15.8566,79.2806 C7.0996,79.2806 0.000599999999,72.1816 0.000599999999,63.4256 L0.000599999999,39.6406 L31.7116,39.6406 L31.7116,63.4256 C31.7116,72.1816 24.6136,79.2806 15.8566,79.2806" id="Fill-4" fill="#FFEBA1"/></g><g id="Group-Copy-3" transform="translate(155.000000, 49.000000) rotate(45.000000) translate(-155.000000, -49.000000) translate(139.000000, 9.000000)"><path d="M31.712,39.641 L-2.34479103e-13,39.641 L-2.34479103e-13,15.857 C-2.34479103e-13,7.1 7.1,4.26325641e-14 15.857,4.26325641e-14 C24.613,4.26325641e-14 31.712,7.1 31.712,15.857 L31.712,39.641 Z" id="Fill-1" fill="#D0DDDF"/><path d="M15.8566,79.2806 L15.8566,79.2806 C7.0996,79.2806 0.000599999999,72.1816 0.000599999999,63.4256 L0.000599999999,39.6406 L31.7116,39.6406 L31.7116,63.4256 C31.7116,72.1816 24.6136,79.2806 15.8566,79.2806" id="Fill-4" fill="#EDEDDD"/></g><g id="Group-Copy-7" transform="translate(141.000000, 230.000000) rotate(-59.000000) translate(-141.000000, -230.000000) translate(125.000000, 190.000000)"><path d="M31.712,39.641 L-2.34479103e-13,39.641 L-2.34479103e-13,15.857 C-2.34479103e-13,7.1 7.1,4.26325641e-14 15.857,4.26325641e-14 C24.613,4.26325641e-14 31.712,7.1 31.712,15.857 L31.712,39.641 Z" id="Fill-1" fill="#D0DDDF"/><path d="M15.8566,79.2806 L15.8566,79.2806 C7.0996,79.2806 0.000599999999,72.1816 0.000599999999,63.4256 L0.000599999999,39.6406 L31.7116,39.6406 L31.7116,63.4256 C31.7116,72.1816 24.6136,79.2806 15.8566,79.2806" id="Fill-4" fill="#EDEDDD"/></g></g></g></svg>