<svg viewBox="1419 1760.1503759398497 162.00000000000014 284.21052631578914" xmlns="http://www.w3.org/2000/svg" overflow="visible" xmlns:xlink="http://www.w3.org/1999/xlink" width="150.00000000000014px" height="263.1578947368418px"><rect id="Blush Background Color" fill="#ffffff" x="1419" y="1760.1503759398497" width="162.00000000000014" height="284.21052631578914"/><g id="Master/Stickers/Testicles" stroke="none" stroke-width="1" fill="none" fill-rule="evenodd"><g id="Group-12" transform="translate(1426.000000, 1802.000000)"><path d="M27.8298,91.4301 C27.8298,101.8371 24.8328,110.5041 22.1898,118.1511 C20.4978,123.0451 19.0588,127.2091 18.4938,131.1081 C24.9118,120.9281 36.9918,117.2711 44.5948,120.9611 C52.8078,124.9461 52.6758,135.9751 46.7948,148.0941 C40.9138,160.2131 36.3628,166.4051 27.2568,167.0321 C-1.3452,169.0001 5.7418,127.8371 10.4888,114.1061 C12.9278,107.0521 15.4498,99.7581 15.4498,91.4301 L15.4898,91.4301 C15.4898,82.9731 12.1228,78.0141 8.2268,72.2721 C1.7498,62.7271 -5.5922,51.9101 6.4298,28.1501 C13.3958,14.3811 25.0608,8.3121 38.4398,11.5061 C38.4628,11.5111 38.4848,11.5181 38.5078,11.5241 C46.4918,3.5041 59.3588,0.0001 73.8808,0.0001 C88.4028,0.0001 101.2708,3.5041 109.2538,11.5241 C109.2768,11.5181 109.2988,11.5111 109.3218,11.5061 C122.6978,8.3151 134.3658,14.3811 141.3318,28.1501 C153.3538,51.9101 146.0128,62.7271 139.5348,72.2721 C135.6378,78.0141 132.2718,82.9731 132.2718,91.4301 C132.2718,99.7581 134.7938,107.0521 137.2328,114.1061 C141.9798,127.8371 149.0668,169.0001 120.4648,167.0321 C111.3588,166.4051 106.8078,160.2131 100.9268,148.0941 C95.0458,135.9751 94.9138,124.9461 103.1268,120.9611 C110.7298,117.2711 122.8098,120.9281 129.2278,131.1081 C128.6628,127.2091 127.2248,123.0451 125.5318,118.1511 C122.8888,110.5041 119.8918,101.8371 119.8918,91.4301 C119.8918,79.1691 125.1028,71.4901 129.2908,65.3201 C135.1458,56.6921 139.0158,50.9921 130.2858,33.7401 C126.7228,26.6981 121.9878,23.1291 116.1798,23.0761 C117.1938,26.3231 117.7468,29.9381 117.7468,33.9621 C117.7468,52.5541 106.1748,65.5181 89.8448,70.5471 C91.9048,72.8501 93.1088,75.9301 93.1088,79.8991 C93.1088,86.4101 89.8668,91.3411 84.9128,94.1841 C81.8638,95.9341 80.0708,99.2671 80.0708,102.7831 L80.0708,190.9461 C80.0708,194.3651 77.2998,197.1361 73.8808,197.1361 C70.4618,197.1361 67.6908,194.3651 67.6908,190.9461 L67.6908,102.7831 C67.6908,99.2671 65.8988,95.9341 62.8498,94.1841 C57.8948,91.3411 54.6538,86.4101 54.6538,79.8991 C54.6538,75.9301 55.8568,72.8501 57.9168,70.5471 C41.5878,65.5181 30.0158,52.5541 30.0158,33.9621 C30.0158,29.9381 30.5678,26.3241 31.5818,23.0771 C25.7758,23.1311 21.0388,26.6981 17.4758,33.7401 C8.7468,50.9921 12.6148,56.6921 18.4708,65.3201 C22.6578,71.4901 27.8698,79.1691 27.8698,91.4301 L27.8298,91.4301 Z" id="Fill-1" fill="#EFA8B7"/><path d="M93.7199,155.0395 C87.1519,143.6625 88.2059,130.7565 96.0749,126.2135 C103.9449,121.6705 115.6489,125.9725 122.2169,137.3495 C128.7849,148.7265 127.7309,162.8695 119.8619,167.4135 C111.9919,171.9565 100.2889,166.4165 93.7199,155.0395" id="Fill-4" fill="#EFEED8"/><path d="M54.0417,155.0395 C60.6097,143.6625 59.5557,130.7565 51.6867,126.2135 C43.8167,121.6705 32.1137,125.9725 25.5447,137.3495 C18.9767,148.7265 20.0307,162.8695 27.8997,167.4135 C35.7697,171.9565 47.4737,166.4165 54.0417,155.0395" id="Fill-6" fill="#EFEED8"/><path d="M42.7056218,37.9829406 L45.6765782,30.5550594 L46.0061646,30.6923786 C46.7696307,31.02201 47.8491523,31.5614104 49.1511426,32.3315629 C51.6043285,33.7826699 54.0499903,35.6040911 56.3383475,37.834349 C61.2637343,42.6346847 64.7726848,48.6438066 66.2037348,55.9206327 L66.3151994,56.5134248 L58.4410006,57.9265752 C57.3999934,52.125991 54.6775584,47.3867352 50.7546893,43.5634642 C48.950051,41.804644 47.0103604,40.3600478 45.0781939,39.2171339 C44.52225,38.8882823 44.0039911,38.6068059 43.5341337,38.3714472 L43.2581132,38.235756 C43.0445799,38.1328192 42.8864462,38.0608408 42.7904901,38.0189038 L42.7056218,37.9829406 Z" id="Stroke-8" fill="#000" fill-rule="nonzero"/><path d="M102.085522,30.5550594 L105.056478,37.9829406 L104.827051,38.0837068 C104.740283,38.1233769 104.632107,38.1739939 104.503987,38.235756 C103.963905,38.4961104 103.351039,38.822512 102.683906,39.2171339 C100.75174,40.3600478 98.812049,41.804644 97.0074107,43.5634642 C93.2071313,47.267258 90.5334311,51.830682 89.4236052,57.3858753 L89.3210994,57.9265752 L81.4469006,56.5134248 C82.8007768,48.9695069 86.3652471,42.7644235 91.4237525,37.834349 C93.7121097,35.6040911 96.1577715,33.7826699 98.6109574,32.3315629 C99.9129477,31.5614104 100.992469,31.02201 101.755935,30.6923786 L102.085522,30.5550594 Z" id="Stroke-10" fill="#000" fill-rule="nonzero"/></g></g></svg>