<svg viewBox="1425 1582.706766917293 150.00000000000014 451.12781954887214" xmlns="http://www.w3.org/2000/svg" overflow="visible" xmlns:xlink="http://www.w3.org/1999/xlink" width="150.00000000000014px" height="451.12781954887214px"><g id="Master/Stickers/Vaccine" stroke="none" stroke-width="1" fill="none" fill-rule="evenodd"><g id="Group-18" transform="translate(1442.000000, 1601.000000)"><polygon id="Fill-1" fill="#DAE6EB" points="9 122 9 352.769231 55.1538462 352.769231 55.1538462 383.538462 16.6907692 383.538462 16.6907692 398.923077 109 398.923077 109 383.538462 70.5384615 383.538462 70.5384615 352.769231 116.690769 352.769231 116.690769 122"/><g id="Group-17"><path d="M49.6909231,146.919077 C59.0493846,145.960615 93.9616923,137.205231 100.923231,145.039077 L100.923231,337.462154 L24.0001538,337.462154 L24.0001538,145.879077 C27.0847692,148.736 38.554,148.059077 49.6909231,146.919077" id="Liquid-Color" fill="#52D6C0"/><polygon id="Fill-4" fill="#DAE6EB" points="57.3076923 140 67.3064425 140 67.3076923 0 57.3089422 0"/><polygon id="Stroke-7" fill="#000" fill-rule="nonzero" points="38.7689231 164.230615 38.7689231 172.230615 -0.000307692309 172.230615 -0.000307692309 164.230615"/><polygon id="Stroke-9" fill="#000" fill-rule="nonzero" points="38.7689231 198.230615 38.7689231 206.230615 -0.000307692309 206.230615 -0.000307692309 198.230615"/><polygon id="Stroke-11" fill="#000" fill-rule="nonzero" points="38.7689231 232.230615 38.7689231 240.230615 -0.000307692309 240.230615 -0.000307692309 232.230615"/><polygon id="Stroke-13" fill="#000" fill-rule="nonzero" points="38.7689231 266.230615 38.7689231 274.230615 -0.000307692309 274.230615 -0.000307692309 266.230615"/><polygon id="Stroke-15" fill="#000" fill-rule="nonzero" points="38.7689231 300.230615 38.7689231 308.230615 -0.000307692309 308.230615 -0.000307692309 300.230615"/></g></g></g></svg>